/* XPM */
static char *result[] = {
/* columns rows colors chars-per-pixel */
"36 40 226 2 ",
"   c #77221E",
".  c #7E321B",
"X  c #7C2923",
"o  c #7C3A35",
"O  c #69322C",
"+  c #7C461F",
"@  c #555F25",
"#  c #4C5B30",
"$  c #485921",
"%  c #7C413D",
"&  c #7B5E2A",
"*  c #5A602B",
"=  c #566B31",
"-  c #73722E",
";  c #72783A",
":  c #7F4544",
">  c #6E7858",
",  c #8E1D0F",
"<  c #9A1D0C",
"1  c #881E13",
"2  c #961F12",
"3  c #A21E0B",
"4  c #A81F11",
"5  c #8D210F",
"6  c #8A251D",
"7  c #892518",
"8  c #9C2313",
"9  c #94251C",
"0  c #9D261B",
"q  c #942A1D",
"w  c #9C2C1C",
"e  c #932215",
"r  c #8F3518",
"t  c #A3220D",
"y  c #AB230D",
"u  c #B3230E",
"i  c #BB250E",
"p  c #BA2B0E",
"a  c #A42413",
"s  c #AB2413",
"d  c #AE2914",
"f  c #A22618",
"g  c #A32B1C",
"h  c #AC2C1C",
"j  c #A42915",
"k  c #B52B14",
"l  c #B42D1B",
"z  c #BD2F1C",
"x  c #B92613",
"c  c #A73718",
"v  c #BA311E",
"b  c #8B2A22",
"n  c #872B24",
"m  c #932C23",
"M  c #9B2C22",
"N  c #9A2B25",
"B  c #84342D",
"V  c #89322C",
"C  c #9B3325",
"Z  c #9B352A",
"A  c #9C3A2F",
"S  c #923728",
"D  c #843E3A",
"F  c #883B34",
"G  c #9A3C33",
"H  c #983731",
"J  c #A52E22",
"K  c #B82E20",
"L  c #A53325",
"P  c #AB3223",
"I  c #A3362A",
"U  c #AC352A",
"Y  c #AD392C",
"T  c #B33223",
"R  c #BB3322",
"E  c #B53629",
"W  c #B3392C",
"Q  c #BC3B2B",
"!  c #B83824",
"~  c #AD3D32",
"^  c #B63F36",
"/  c #C5280E",
"(  c #C22B15",
")  c #C92D18",
"_  c #D82D16",
"`  c #CC351A",
"'  c #C5391A",
"]  c #D3371A",
"[  c #D8290B",
"{  c #E3351C",
"}  c #E93719",
"|  c #F13819",
" . c #C33524",
".. c #CC3B24",
"X. c #C83826",
"o. c #D33C2C",
"O. c #DC3E2A",
"+. c #D23923",
"@. c #DB3F30",
"#. c #C63C38",
"$. c #E53D22",
"%. c #ED3E22",
"&. c #9F4B17",
"*. c #8E5630",
"=. c #975B31",
"-. c #8D4731",
";. c #BD4220",
":. c #A4522F",
">. c #BB493C",
",. c #B64537",
"<. c #B65636",
"1. c #A5473C",
"2. c #887436",
"3. c #8E6A2E",
"4. c #BC6633",
"5. c #DA421D",
"6. c #EA401F",
"7. c #CB422D",
"8. c #DD4423",
"9. c #D44429",
"0. c #C34332",
"q. c #CC4432",
"w. c #CB4F3E",
"e. c #C14A39",
"r. c #DC4E36",
"t. c #DB4B3E",
"y. c #D84732",
"u. c #DD533C",
"i. c #E2442B",
"p. c #E54926",
"a. c #E24C35",
"s. c #E44D3B",
"d. c #EE4B3F",
"f. c #E3533B",
"g. c #E7563A",
"h. c #F1483A",
"j. c #CF7239",
"k. c #854941",
"l. c #944942",
"z. c #98524B",
"x. c #895A57",
"c. c #A04842",
"v. c #BA4D44",
"b. c #A4554C",
"n. c #B4574C",
"m. c #B55E53",
"M. c #A85D58",
"N. c #9C6E40",
"B. c #8B615E",
"V. c #90625F",
"C. c #A87843",
"Z. c #BE7F49",
"A. c #B3695A",
"S. c #997673",
"D. c #946865",
"F. c #AC746B",
"G. c #B77768",
"H. c #BD7A70",
"J. c #A36B61",
"K. c #CA4D41",
"L. c #C35344",
"P. c #C85649",
"I. c #DC5742",
"U. c #D75A49",
"Y. c #D55B53",
"T. c #D1544D",
"R. c #E64D47",
"E. c #EA5647",
"W. c #EF5E51",
"Q. c #D86149",
"!. c #C26252",
"~. c #CC6557",
"^. c #D76453",
"/. c #C87853",
"(. c #D46B63",
"). c #CB7969",
"_. c #C2796C",
"`. c #DD7162",
"'. c #D17975",
"]. c #E06560",
"[. c #E1726D",
"{. c #EB7771",
"}. c #8B9638",
"|. c #8E873C",
" X c #A1B43F",
".X c #97995A",
"XX c #8F904C",
"oX c #A48449",
"OX c #AF924D",
"+X c #BB9D53",
"@X c #9EB146",
"#X c #ABBE42",
"$X c #A2B153",
"%X c #ACB054",
"&X c #8B8F78",
"*X c #9DA968",
"=X c #AAB966",
"-X c #BBB875",
";X c #ACA068",
":X c #C8955B",
">X c #D48376",
",X c #CF8172",
"<X c #C1BC6B",
"1X c #B4CA5B",
"2X c #B4CE56",
"3X c #A8C866",
"4X c #B8C969",
"5X c #BCD86A",
"6X c #ABC673",
"7X c #B6CA76",
"8X c #BCD277",
"9X c #C4DB69",
"0X c #C2DE70",
"qX c #C8DB77",
"wX c #C7E37B",
"eX c #A28984",
"rX c #ACB790",
"tX c #DD8C89",
"yX c #E68787",
"uX c #BBCC80",
"iX c #BDD090",
"pX c #C8D788",
"aX c #D2DF89",
"sX c #C3DE98",
"dX c #C6E584",
"fX c None",
/* pixels */
"fXfXfXfXfXfXfXfXfXfXfXfXfXfXfXfXfXfXfXfXfXfXfX* fXfXfXfXfXfXfXfXfXfXfXfX",
"fXfXfXfXfXfXfXfXfXfXfXfXfXfXfXfXfXfXfXfXfX> * $ = fXfXfXfXfXfXfXfXfXfXfX",
"fXfXfXfXfXfXfXfXfXfXfXfXfXfXfXfXfXfXfXfX&XfXfXfXfXfXfXfXfXfXfXfXfXfXfXfX",
"fXfXfXfXfXfXfXfXfXfXfXfXfXfXfXfXfXfXfXfXfXfXfXfXfXfXfXiXfXfXfXfXfXfXfXfX",
"fXfXfXfXfXfXfXfXfXfXfXfXfXfXfXfXfXfXfXfXfXfX* * fXfXfXfXfXfXfXfXfXfXfXfX",
"fXfXfXfXfXfXfXfXfXfXfXfXfXfXfXfXfXfXfXfXfX@ ; fXfXfXfXfXfXrXfXfXfXfXfXfX",
"fXfXfXfXfXfXfXfXfXfXfXfXfXfXfXfXfXfX=X7X.X- fXfXfXfXfXfXfXfXfXfXfXfXfXfX",
"fXfXfXfXfXfXfXfXfXfXfXfXfXfXfXfXfX4X1X1X}.fXfXfXfXfXfXfXfXfXfXfXfXfXfXfX",
"fXfXfXfXfXfXfXfXfXfXfXfXfX6X4XqXaXaX9X X X=X;XA.c.fXfXfXfXfXfXfXfXfXfXfX",
"fXfXfXfXfXfXfXfXfXfXfX*X=X6XpXqX7X*X#X2X2X4X9XOXT ~ G fXfXfXfXfXfXfXfXfX",
"fXfXfXfXfXfXfXfXfX.XXXXX$X=X6X3X6X}.}.5X9XwXdX-X<.( d 0 l.fXfXfXfXfXfXfX",
"fXfXfXfXfXfXfXfXfX=.C.=X@X3X6X8X8X2.2.5X9X9XwXqXN.Y K P Z V fXfXfXfXfXfX",
"fXfXfXfXfXfXfXfX<./.-X|.&.+XiXiXpX*.r OX9X5X9X0X2.l.R l a 8 F fXfXfXfXfX",
"fXfXfXfXfXfX.X|.2.oX2.c [ j.pXsXrXr u c oX=X1X3X- . w h y t b J.fXfXfXfX",
"fXfXfXfXfXfX/.C.&.c k ] 6.p.:X8XC.c 7.i d :.=.+ *.+ e a a a 7 B fXfXfXfX",
"fXfXfXfXfX,XQ.Q.9.] } 6.g.6.8.4.c w. .p u ;.j 5 S S C L t < 7 D fXfXfXfX",
"fXfXfXfXfXu.i.i.E.a.| %.d.6.E.y.( '.R.X.X.! y h U 8 2 f a 8 b % fXfXfXfX",
"fXfXfXfXfXu.f.i.8.p.| W.g.p.R.[.tXY.o.q.7.#.k E n.4 3 3 3 w B % fXfXfXfX",
"fXfXfXfXfXE.u.t.$.$.6.g.W.W.g.I.yXy.Y.(.)  .i k U 4 h 4 < M X x.fXfXfXfX",
"fXfXfXfX~.r.s.I.$.s.g.p.h.{.`.u.R.O.~.T./ / i x 4 y ~ P 8 5 B V.fXfXfXfX",
"fXfXfXfXfXQ.f.a.$.i.{ | p.d.].R.{ $.t.` ` p ! K k 4 3 < 5 6 D x.fXfXfXfX",
"fXfXfXfXfX>Xf.R.O.i.$.| 8.{ { { ] 9.[ ] P.) u s h h s a e b : S.fXfXfXfX",
"fXfXfXfXfX>XU.U.r.r.O.O.9._ 8.8.] .._ / R k h t t j g w e F B.eXfXfXfXfX",
"fXfXfXfXfXfX).^.w.^.9.X.o._ +.` _ ) ' ( z l ,.h j < 2 5 7 o S.fXfXfXfXfX",
"fXfXfXfXfXfXfX~.T.^.q.q.o.X.7. .X.( i i l 4 P 0 0 w w b X % &XfXfXfXfXfX",
"fXfXfXfXfXfXfX).(.K.0.e.#.' X.) z  .l l s s J 0 8 5 6 V B O fXfXfXfXfXfX",
"fXfXfXfXfXfXfXfX>XL.K.K.0.,.7.X.R T l h h J 8 m N q n B z.V.fXfXfXfXfXfX",
"fXfXfXfXfXfXfXfX_.P.!.P.W >.,.R l W g J Z w 9 b n   B   o fXfXfXfXfXfXfX",
"fXfXfXfXfXfXfXfXfX,Xv.E ^ L.~ U h a M H Z m b b V X D D : fXfXfXfXfXfXfX",
"fXfXfXfXfXfXfXfXfXfXm.>.>.W T U U 0 0 0 N b 1 1 b   X -.fXfXfXfXfXfXfXfX",
"fXfXfXfXfXfXfXfXfXfX_.L.v.E l E P P w 0 N N N n m F l.% fXfXfXfXfXfXfXfX",
"fXfXfXfXfXfXfXfXfXfXfX!.K.^ Q l R h J U N J N G H V k.fXfXfXfXfXfXfXfXfX",
"fXfXfXfXfXfXfXfXfXfXfXfX~.L.Q ! l l T g 8 w q M q l.F.fXfXfXfXfXfXfXfXfX",
"fXfXfXfXfXfXfXfXfXfXfXfX).P.0.0.Q Y h 0 f I I Z b z.fXfXfXfXfXfXfXfXfXfX",
"fXfXfXfXfXfXfXfXfXfXfXfXfX/.!.>.E W J 0 g C S b.z.fXfXfXfXfXfXfXfXfXfXfX",
"fXfXfXfXfXfXfXfXfXfXfXfXfXfXm.m.v.U U L I C -.l.fXfXfXfXfXfXfXfXfXfXfXfX",
"fXfXfXfXfXfXfXfXfXfXfXfXfXfXfXA.n.1.^ I I G b.J.fXfXfXfXfXfXfXfXfXfXfXfX",
"fXfXfXfXfXfXfXfXfXfXfXfXfXfXfXfXG.m.m.n.b.M.fXfXfXfXfXfXfXfXfXfXfXfXfXfX",
"fXfXfXfXfXfXfXfXfXfXfXfXfXfXfXfXfXA.H.G.F.fXfXfXfXfXfXfXfXfXfXfXfXfXfXfX",
"fXfXfXfXfXfXfXfXfXfXfXfXfXfXfXfXfXfXfXfXfXfXfXfXfXfXfXfXfXfXfXfXfXfXfXfX"
};
