/* XPM */
static char *_06aed74a8fe422a823731cde54e8a3c4gK5eXR0BibBZlgY[] = {
/* columns rows colors chars-per-pixel */
"40 40 136 2 ",
"   c None",
".  c #030100",
"X  c #0A0600",
"o  c #0D0900",
"O  c #140700",
"+  c #110C00",
"@  c #171100",
"#  c #1B1300",
"$  c #230C00",
"%  c #2A0F00",
"&  c #211600",
"*  c #281000",
"=  c #241901",
"-  c #2A1D01",
";  c #3D1F00",
":  c #352601",
">  c #3C2A01",
",  c #4A1B00",
"<  c #462F01",
"1  c #5A2000",
"2  c #463101",
"3  c #4C3401",
"4  c #4F3802",
"5  c #513701",
"6  c #553B01",
"7  c #5A3D02",
"8  c #662400",
"9  c #613101",
"0  c #6A3801",
"q  c #7C3F01",
"w  c #5C4102",
"e  c #634502",
"r  c #6D4402",
"t  c #664802",
"y  c #6B4C02",
"u  c #754E03",
"i  c #755302",
"p  c #7F5302",
"a  c #8E3300",
"s  c #803901",
"d  c #943500",
"f  c #9A3F01",
"g  c #845603",
"h  c #865802",
"j  c #885A03",
"k  c #9D5302",
"l  c #A24301",
"z  c #A54901",
"x  c #B15701",
"c  c #876003",
"v  c #8D6403",
"b  c #936303",
"n  c #9B6503",
"m  c #9B6E03",
"M  c #9F7104",
"N  c #A86E03",
"B  c #BC6C03",
"V  c #A37404",
"C  c #AC7103",
"Z  c #A87804",
"A  c #B57603",
"S  c #B77803",
"D  c #BE7B04",
"F  c #C46C02",
"G  c #C87203",
"H  c #C37E04",
"J  c #CA7B03",
"K  c #D27F03",
"L  c #B78304",
"P  c #BA8304",
"I  c #BF8804",
"U  c #C68104",
"Y  c #C58C04",
"T  c #C88E04",
"R  c #D18604",
"E  c #D38A04",
"W  c #DB8E04",
"Q  c #CE9204",
"!  c #D49505",
"~  c #DF9104",
"^  c #DC9B05",
"/  c #E29404",
"(  c #E39D05",
")  c #EB9D04",
"_  c #E5A205",
"`  c #EBA405",
"'  c #EEA905",
"]  c #F2A505",
"[  c #F4AB05",
"{  c #F9AE05",
"}  c #FCB305",
"|  c #FDB305",
" . c #FCB205",
".. c #FEB305",
"X. c #FDB405",
"o. c #FEB405",
"O. c #FEB505",
"+. c #FFB505",
"@. c #FFB506",
"#. c #FFB607",
"$. c #FFB505",
"%. c #FFB70A",
"&. c #FFB70B",
"*. c #FFB70D",
"=. c #FEB509",
"-. c #FFB80F",
";. c #FFB810",
":. c #FFB913",
">. c #FFBA14",
",. c #FFBA15",
"<. c #FFBA15",
"1. c #FFBC1E",
"2. c #FFBD1F",
"3. c #FFBE22",
"4. c #FFC029",
"5. c #FFC12B",
"6. c #FFC12C",
"7. c #FFC12E",
"8. c #FFC230",
"9. c #FFC333",
"0. c #FFC333",
"q. c #FFC53B",
"w. c #FFC740",
"e. c #FFC845",
"r. c #FFC842",
"t. c #FFC948",
"y. c #FFCE55",
"u. c #FFCD53",
"i. c #FFCF5B",
"p. c #FFCF59",
"a. c #FFD05E",
"s. c #FFD05D",
"d. c #FFD267",
"f. c #FFD264",
"g. c #FFD368",
"h. c #FFD369",
/* pixels */
"                                                                                ",
"                          X & 2 &             @ > & .                           ",
"                      - w V !  .u             r _ ^ Z t =                       ",
"                  o 6 Y  .+.+.+.V           X b [ +. .[ Q e o                   ",
"                = c ` [ [ [  .+.Y &         $ P  .+.+.+.} [ v &                 ",
"              w ! ( b 3 # o i [ ^ >         ; ! } +.+.+.+.+.[ ! w               ",
"            4 Q P > . . . . : ` ' 4         9 ( +.+.+.+.+.+.+.} _ 5             ",
"          4 T v 3 > - # & t Q  .+.w       . q [ +.+.+.+.+.+.+.+.+.^ w           ",
"        # Q M # i ^ ^ Q ^  .+.+.+.i       O k [ +.+.+.+.+.+.+.+.+.} ! =         ",
"      X v L # . # _ +.+.+.+.+.+.+.b       % B { +.+.+.+.+.+.+.+.+.+.} j o       ",
"      7 [ 4 . . + P  .+.+.+.+.+.+.L o   . 1 R } +.+.+.+.+.+.+.+.+.+.+.( 3       ",
"    - Q _ + . + t [ +.+.+.+.+.+.+.Q #   . a / } +.+.+.+.+.+.+.+.+.+.+.] C =     ",
"    y [ Y o o y ' +.+.+.+.+.+.+.+.^ -   $ f ) +.+.+.+.+.+.+.+.+.+.+.+.{ W 7     ",
"  . L } ` > 4 _ +.+.+.+.+.+.+.+.+.' >   , z [ +.+.+.+.+.+.+.+.+.+.+.+.{ / b X   ",
"  - ^ +.+.{ { +.+.+.+.+.+.+.+.+.+.+.6 . 8 x  .+.+.+.+.+.+.+.+.+.+.+.+.+./ H =   ",
"  6  .+.+.+.+.+.+.+.+.+.+.+.+.+.+.+.c . a G } +.+.+.+.+.+.+.+.+.+.+.+.{ / W <   ",
"  m } +.+.+.+.+.+.+.+.+.+.+.+.+.+.+.I * d ~ +.+.+.+.+.+.+.+.+.+.+.+.+.{ / ~ g   ",
". Y +.+.%.+.+.+.+.+.+.+.+.+.+.+.+.+.] , d [ +.+.+.+.+.+.+.+.+.+.+.+.+.[ ~ ~ A . ",
". [ +.%.9.+.+.+.+.+.+.+.+.+.+.+.+.+.+.s l } +.+.+.+.+.+.+.+.+.+.+.+.+.] ~ ~ E . ",
". +.;.q.g.;.+.+.+.+.+.+.+.+.+.+.+.+.+.k x +.+.+.+.+.+.+.+.+.+.+.+.+.+.) ~ ~ ~ . ",
". +.7.g.g.<.+.+.+.+.+.+.+.+.+.+.+.+.+.A F +.+.+.+.+.+.+.+.+.+.+.+.+.+./ W / ~ . ",
". [ 5.g.g.1.+.+.+.+.+.+.+.+.+.+.+.+.+.J K +.+.+.+.+.+.+.+.+.+.+.+.+.+.W / W E . ",
". Y <.a.g.5.+.+.+.+.+.+.+.+.+.+.+.+.+.E / +.+.+.+.+.+.+.+.+.+.+.+.+.] / W / S . ",
"  v %.y.d.7.+.+.+.+.+.+.+.+.+.+.+.+.+._ ] +.+.+.+.+.+.+.+.+.+.+.+.+.) W / W b   ",
"  4  .9.d.e.+.+.+.+.+.+.+.+.+.+.+.+.+.+.+.+.+.+.+.+.+.+.+.+.+.+.+.[ ~ / ~ W 5   ",
"  = ^ *.a.i.+.+.+.+.+.+.+.+.+.+.+.+.+.+.+.+.+.+.+.+.+.+.+.+.+.+.+./ / W / H &   ",
"  + V %.w.d.3.+.+.+.+.+.+.+.+.+.+.+.+.+.+.+.+.+.+.+.+.+.+.+.+.+.) ~ ~ ~ W n o   ",
"    e  .<.a.t.+.+.+.+.+.+.+.+.+.+.+.+.+.+.+.+.+.+.+.+.+.+.+.+.{ / W ~ ~ E 0     ",
"    = Y %.w.i.<.+.+.+.+.+.+.+.+.+.+.+.+.+.+.+.+.+.+.+.+.+.+.} / ~ W / W A -     ",
"      4 [ ;.u.9.+.+.+.+.+.+.+.+.+.+.+.+.+.+.+.+.+.+.+.+.+.} / ~ ~ / / R 6       ",
"      o c  .<.r.<.+.+.+.+.+.+.+.+.+.+.+.+.+.+.+.+.+.+.+.{ / ~ ~ / W E g X       ",
"        # Q %.3.w.*.+.+.+.+.+.+.+.+.+.+.+.+.+.+.+.+.+.] / ~ ~ ~ W ~ A &         ",
"          6 ^ %.3.1.+.+.+.+.+.+.+.+.+.+.+.+.+.+.+.{ ` / / ~ ~ ~ ~ D 3           ",
"            6 ^ } -.;.+.+.+.+.+.+.+.+.+.+.+.+.} ] / ~ W ~ ~ ~ ~ D 3             ",
"              w ! [ } +.+.+.+.+.+.+.+.+.+.{ ' ( / ~ W / ~ ~ W D 5               ",
"                & h ~ ` ] ] [ [ [ ] ` ) / ~ ~ ~ ~ ~ / ~ ~ E p =                 ",
"                  X 7 A E ~ W / ~ ~ ~ ~ ~ ~ ~ ~ ~ ~ ~ W A 4 o                   ",
"                      = 7 n D E W ~ ~ ~ ~ ~ ~ ~ W D b 7 -                       ",
"                          . = < g N U E E H N u > # X                           ",
"                                  . . . . . .                                   "
};
