/* XPM */
static char *_93b93e2bea14315fee9950cf2c0675eZLE13s0RPZwo05Am[] = {
/* columns rows colors chars-per-pixel */
"40 40 211 2 ",
"   c None",
".  c black",
"X  c #000003",
"o  c #000009",
"O  c #00030C",
"+  c #02060E",
"@  c #050A13",
"#  c #141C1F",
"$  c #1A2324",
"%  c #25302B",
"&  c #303A2A",
"*  c #3E4C34",
"=  c #485533",
"-  c #4A5734",
";  c #5A6833",
":  c #5D6A35",
">  c #687637",
",  c #657F68",
"<  c #798534",
"1  c #778E5D",
"2  c #7D9259",
"3  c #7C915B",
"4  c #7E9458",
"5  c #7F9458",
"6  c #7E9459",
"7  c #7B925C",
"8  c #7D915C",
"9  c #6A8366",
"0  c #708962",
"q  c #8C9933",
"w  c #919E30",
"e  c #9BA72F",
"r  c #B0BB2A",
"t  c #AFBD36",
"y  c #A4B53E",
"u  c #A6B53F",
"i  c #A9B73D",
"p  c #A8B73E",
"a  c #ADBB3A",
"s  c #ACBA3B",
"d  c #AEBB3A",
"f  c #A9B83C",
"g  c #AAB83D",
"h  c #BBC72F",
"j  c #BDC82F",
"k  c #BDC92F",
"l  c #BEC92F",
"z  c #BDCA2E",
"x  c #BECA2E",
"c  c #BFCA2E",
"v  c #B7C532",
"b  c #B6C335",
"n  c #B8C530",
"m  c #B9C631",
"M  c #BBC730",
"N  c #BAC731",
"B  c #BBC731",
"V  c #B8C433",
"C  c #B9C632",
"Z  c #BBC732",
"A  c #BAC633",
"S  c #BAC733",
"D  c #BAC534",
"F  c #BCC830",
"G  c #BDC930",
"H  c #BDC831",
"J  c #BEC930",
"K  c #CDD51F",
"L  c #D0D61F",
"P  c #D3DA1E",
"I  c #D5DC1F",
"U  c #D7DE1F",
"Y  c #D8DF1D",
"T  c #D9DF1D",
"R  c #D8DE1E",
"E  c #D8DF1E",
"W  c #D9DF1E",
"Q  c #DBE11B",
"!  c #DDE21A",
"~  c #DDE31A",
"^  c #DCE21B",
"/  c #DDE31B",
"(  c #DEE419",
")  c #DDE41A",
"_  c #D9E01C",
"`  c #DBE01C",
"'  c #DAE11C",
"]  c #DBE11C",
"[  c #DAE01D",
"{  c #DAE11D",
"}  c #EEF20D",
"|  c #EFF20D",
" . c #ECF00F",
".. c #EDF00F",
"X. c #EEF10E",
"o. c #F7F807",
"O. c yellow",
"+. c #FFFF01",
"@. c #FCFC03",
"#. c #FCFD03",
"$. c #FDFD03",
"%. c #FEFE02",
"&. c #FFFF02",
"*. c #FEFE03",
"=. c #FFFE03",
"-. c #FFFF03",
";. c #F9FA05",
":. c #FAFB05",
">. c #F8F907",
",. c #F9FA07",
"<. c #FAFB06",
"1. c #FBFC04",
"2. c #FCFC04",
"3. c #FCFD04",
"4. c #FDFD04",
"5. c #FDFE04",
"6. c #FEFE04",
"7. c #FFFE04",
"8. c #FFFF04",
"9. c #FEFF05",
"0. c #FCFD06",
"q. c #F2F50B",
"w. c #F3F60B",
"e. c #F4F509",
"r. c #F5F709",
"t. c #F6F709",
"y. c #F4F60A",
"u. c #F5F70A",
"i. c #F4F60B",
"p. c #F4F70B",
"a. c #F1F40E",
"s. c #F6F808",
"d. c #F7F808",
"f. c #F6F809",
"g. c #F7F809",
"h. c #F6F80A",
"j. c #F7F80A",
"k. c #F8F908",
"l. c #F8FA08",
"z. c #F9FC09",
"x. c #E4E915",
"c. c #E6EB14",
"v. c #E9ED11",
"b. c #EAEE10",
"n. c #EBEE10",
"m. c #EBEF11",
"M. c #E8EC14",
"N. c #E0E519",
"B. c #C6CF22",
"V. c #C3CD29",
"C. c #C3CE2A",
"Z. c #C0CB2E",
"A. c #C1CC2C",
"S. c #C2CD2C",
"D. c #C7D227",
"F. c #CBD321",
"G. c #CED722",
"H. c #CDD526",
"J. c #CDD626",
"K. c #CBD428",
"L. c #CBD528",
"P. c #D2D923",
"I. c #D4DB22",
"U. c #D7DE20",
"Y. c #D0D824",
"T. c #D1D924",
"R. c #D1D825",
"E. c #879C4F",
"W. c #829657",
"Q. c #829757",
"!. c #849A53",
"~. c #859A54",
"^. c #869A56",
"/. c #889C54",
"(. c #809559",
"). c #819658",
"_. c #9CAE43",
"`. c #98A947",
"'. c #99AB46",
"]. c #9AAB46",
"[. c #9BAD45",
"{. c #9AAC46",
"}. c #9BAC47",
"|. c #9DAD45",
" X c #9CAE44",
".X c #9EAF44",
"XX c #9EAE45",
"oX c #9EAF45",
"OX c #9FAF45",
"+X c #9FAF46",
"@X c #94A74A",
"#X c #95A74A",
"$X c #91A54C",
"%X c #90A44D",
"&X c #92A54C",
"*X c #93A54C",
"=X c #95A74C",
"-X c #95A84A",
";X c #96A84A",
":X c #99AA48",
">X c #9AAA49",
",X c #8CA053",
"<X c #8EA252",
"1X c #A0B142",
"2X c #A1B142",
"3X c #A2B342",
"4X c #A4B440",
"5X c #A7B640",
"6X c #A7B740",
"7X c #A5B442",
"8X c #A5B443",
/* pixels */
"                                (.*XOX7X7XOX&XW.                                ",
"                          ;XF [  .d.1.-.-.1.o. .Q k ;X                          ",
"                      i [ d.-.-.-.-.-.-.-.-.-.-.-.-.d.[ i                       ",
"                  `.E -.-.-.-.-.-.-.-.-.-.-.-.-.-.-.-.-.2.[ }.                  ",
"                B t.-.-.-.-.-.-.-.-.-.-.-.-.-.-.-.-.-.-.-.-.t.F                 ",
"              L.-.-.-.-.-.-.-.-.-.-.-.-.2.z.-.-.-.-.-.-.-.-.-.2.T.3             ",
"            T.-.-.-.-.-.-.-.-.-.-.-.-.P < ; q M.-.-.-.-.-.-.-.-.-.U.3           ",
"          L.-.-.-.-.-.-.-.-.-.-.-.-.! * O X @ > t.-.-.-.-.-.-.-.-.-.P.          ",
"        B -.-.-.-.-.-.-.-.-.-.-.-.-.e @ X X X $ K -.-.-.-.-.-.-.-.-.-.k         ",
"      ;Xw.-.-.-.-.-.-.-.-.-.-.-.-.-.w + X X X # B.-.-.-.-.-.-.-.-.-.-.d._.      ",
"      E -.-.-.-.-.-.-.-.-.-.-.-.-.-.F.% X X O - M.-.-.-.-.-.-.-.-.-.-.-.!       ",
"    u 2.-.-.-.-.-.-.-.-.-.-.-.-.-.-.2.r - & : L -.-.-.-.-.-.-.-.-.-.-.-.-.a     ",
"    E -.-.-.-.-.-.-.-.-.-.-.-.-.-.-.-.-.a.c.d.-.-.-.-.-.-.-.-.-.-.-.-.-.-.!     ",
"  =Xt.-.-.-.-.-.-.-.-.-.-.-.-.-.-.-.-.-.-.-.-.-.-.-.-.-.-.-.-.-.-.-.-.-.-.l.OX  ",
"  B -.-.-.-.-.-.-.-.-.-.-.-.-.-.-.-.-.-.-.-.-.-.-.-.-.-.-.-.-.-.-.-.-.-.-.-.S.  ",
"  E -.-.-.-.-.-.-.-.-.-.-.-.-.-.-.-.-.-.-.-.-.-.-.-.-.-.-.-.-.-.-.-.-.-.-.-.!   ",
"4 b.-.-.-.-.-.-.-.-.-.-.-.-.-.-.-.-.-.-.-.-.-.-.-.-.-.-.-.-.-.-.-.-.-.-.-.-. .!.",
"*Xt.-.-.-.-.-.-.-.-.-.-.-.-.-.-.-.-.-.-.-.-.-.-.-.-.-.-.-.-.-.-.-.-.-.-.-.-.;.`.",
"}.;.-.-.-.-.-.-.-.-.-.-.-.-.-.-.-.-.-.-.-.-.-.-.-.-.-.-.-.;.o.w. .M.x.N.Q U J./.",
"3X-.-.-.-.-.-.-.-.-.-.-.-.-.-.-.-.-.-.t.G.C.h t u }.&X<X<X^.4 1 0 9 ,           ",
"3X-.-.-.-.-.-.-.-.-.-.-.-.-.-.-.-.-.-.t.G.D.C.C.k B v B k k k k k h k B B B b W.",
"_.;.-.-.-.-.-.-.-.-.-.-.-.-.-.-.-.-.-.-.-.-.-.-.-.-.-.-.-.-.-.-.-.-.-.-.-.-.2.7X",
"&Xt.-.-.-.-.-.-.-.-.-.-.-.-.-.-.-.-.-.-.-.-.-.-.-.-.-.-.-.-.-.-.-.-.-.-.-.-.;.`.",
"4 b.-.-.-.-.-.-.-.-.-.-.-.-.-.-.-.-.-.-.-.-.-.-.-.-.-.-.-.-.-.-.-.-.-.-.-.-. .E.",
"  E -.-.-.-.-.-.-.-.-.-.-.-.-.-.-.-.-.-.-.-.-.-.-.-.-.-.-.-.-.-.-.-.-.-.-.-.(   ",
"  B -.-.-.-.-.-.-.-.-.-.-.-.-.-.-.-.-.-.-.-.-.-.-.-.-.-.-.-.-.-.-.-.-.-.-.-.C.  ",
"  #Xd.-.-.-.-.-.-.-.-.-.-.-.-.-.-.-.-.-.-.-.-.-.-.-.-.-.-.-.-.-.-.-.-.-.-.;.OX  ",
"    E -.-.-.-.-.-.-.-.-.-.-.-.-.-.-.-.-.-.-.-.-.-.-.-.-.-.-.-.-.-.-.-.-.-.(     ",
"    f -.-.-.-.-.-.-.-.-.-.-.-.-.-.-.-.-.-.-.-.-.-.-.-.-.-.-.-.-.-.-.-.-.-.a     ",
"      E -.-.-.-.-.-.-.-.-.-.-.-.-.-.-.-.-.-.-.-.-.-.-.-.-.-.-.-.-.-.-.-.!       ",
"      >Xt.-.-.-.-.-.-.-.-.-.-.-.-.-.-.-.-.-.-.-.-.-.-.-.-.-.-.-.-.-.-.d.OX      ",
"        B -.-.-.-.-.-.-.-.-.-.-.-.-.-.-.-.-.-.-.-.-.-.-.-.-.-.-.-.-.-.F         ",
"          J.-.-.-.-.-.-.-.-.-.-.-.-.-.-.-.-.-.-.-.-.-.-.-.-.-.-.-.-.P.          ",
"            I.-.-.-.-.-.-.-.-.-.-.-.-.-.-.-.-.-.-.-.-.-.-.-.-.-.-.U 7           ",
"              J.2.-.-.-.-.-.-.-.-.-.-.-.-.-.-.-.-.-.-.-.-.-.-.-.P.3             ",
"                B t.-.-.-.-.-.-.-.-.-.-.-.-.-.-.-.-.-.-.-.-.d.F                 ",
"                  `.[ -.-.-.-.-.-.-.-.-.-.-.-.-.-.-.-.-.-.! OX                  ",
"                      g Q ;.-.-.-.-.-.-.-.-.-.-.-.-.;.! a                       ",
"                          `.k Q  .o.1.-.-.1.o. .! Z.}.                          ",
"                                W.#X3X7X7X3X;X!.                                "
};
