/* XPM */
static char *fe64dbec36084ed28f701325ee4739ccRdv2LhvXsxXi4x57[] = {
/* columns rows colors chars-per-pixel */
"40 40 165 2 ",
"   c None",
".  c #040200",
"X  c #0A0500",
"o  c #070900",
"O  c #0C0C00",
"+  c #0D1000",
"@  c #161200",
"#  c #221E00",
"$  c #3D3500",
"%  c #3C3C00",
"&  c #473F00",
"*  c #444500",
"=  c #454900",
"-  c #575800",
";  c #5F6000",
":  c #7B7B00",
">  c #888400",
",  c #8D9100",
"<  c #919300",
"1  c #9C9C03",
"2  c #ADB200",
"3  c #AEB50D",
"4  c #B4B500",
"5  c #B3BA1B",
"6  c #B7BA25",
"7  c #C0BE1B",
"8  c #C2BE27",
"9  c #BFC906",
"0  c #BFC316",
"q  c #BCC51D",
"w  c #C4C500",
"e  c #C0C801",
"r  c #CBCB00",
"t  c #C5C809",
"y  c #C9CA0A",
"u  c #D1D100",
"i  c #DDDB00",
"p  c #C3CD16",
"a  c #C1C41D",
"s  c #C9C11E",
"d  c #CAD31E",
"f  c #EDF808",
"g  c #F7F500",
"h  c #FBF601",
"j  c #F6FB02",
"k  c #FEFE02",
"l  c #F4F40A",
"z  c #F5FD0D",
"x  c #FEFE0A",
"c  c #F7F514",
"v  c #F5FC13",
"b  c #FCFD13",
"n  c #F8F618",
"m  c #F5FC1C",
"M  c #FAFD1C",
"N  c #C6C022",
"B  c #CCCD22",
"V  c #C2C62C",
"C  c #CECD29",
"Z  c #CDD224",
"A  c #DEDF21",
"S  c #C3C53E",
"D  c #C6CB39",
"F  c #CFCD3C",
"G  c #C5D336",
"H  c #CDD13F",
"J  c #D4D935",
"K  c #D1D13B",
"L  c #D6DE3A",
"P  c #E3E520",
"I  c #EDEE2E",
"U  c #EEF526",
"Y  c #ECF926",
"T  c #E7F32D",
"R  c #EDF62A",
"E  c #EDF92B",
"W  c #F3F625",
"Q  c #F5FB23",
"!  c #FAFD24",
"~  c #F4F62D",
"^  c #F4FB2B",
"/  c #FBFD2B",
"(  c #E5ED35",
")  c #EBEE34",
"_  c #E6EE39",
"`  c #ECE93A",
"'  c #EBF234",
"]  c #ECF33B",
"[  c #F3F534",
"{  c #F7FB34",
"}  c #F4F934",
"|  c #F9FA35",
" . c #F2F039",
".. c #F3F538",
"X. c #F1F73B",
"o. c #F6F53C",
"O. c #F3F538",
"+. c #F9F339",
"@. c #F8F43D",
"#. c #F2FB3D",
"$. c #F9FA3A",
"%. c #BAC34A",
"&. c #BFC669",
"*. c #C3C647",
"=. c #C0C644",
"-. c #CCCE45",
";. c #CECA43",
":. c #C1C74D",
">. c #C6CC4D",
",. c #CFCF49",
"<. c #CDD146",
"1. c #CCDA49",
"2. c #D3D744",
"3. c #D7DC41",
"4. c #D4DD44",
"5. c #D0D04A",
"6. c #D6D64B",
"7. c #D3D64C",
"8. c #DADE49",
"9. c #D9DD48",
"0. c #C5C952",
"q. c #C7CC50",
"w. c #C6CB53",
"e. c #C4CC59",
"r. c #CBCE5C",
"t. c #C9D35D",
"y. c #CCD25D",
"u. c #D6D257",
"i. c #D8D550",
"p. c #D4DB51",
"a. c #DADD54",
"s. c #D6D15A",
"d. c #D6D758",
"f. c #D4DB5B",
"g. c #DBE340",
"h. c #D9E140",
"j. c #DFEB43",
"k. c #DCE055",
"l. c #E6EB47",
"z. c #EBEF44",
"x. c #E3E149",
"c. c #E8E44F",
"v. c #E1E84A",
"b. c #E7EC4A",
"n. c #EAED4A",
"m. c #EEF245",
"M. c #EDF342",
"N. c #F0F540",
"B. c #F5F542",
"V. c #F0F540",
"C. c #F1FA42",
"Z. c #F8F840",
"A. c #E8E250",
"S. c #E2E955",
"D. c #E2EB5C",
"F. c #C9C761",
"G. c #C6CC62",
"H. c #C3C36B",
"J. c #C7C86B",
"K. c #D1CE60",
"L. c #CDD160",
"P. c #C6CA71",
"I. c #CDCE72",
"U. c #D5D172",
"Y. c #D5D593",
/* pixels */
"                                q.D 8 N s 7 V                                   ",
"                          P.L.p.v.m.B.@.+.o.] j.1.t.                            ",
"                      >.L ( U ! M v b b b b b M Q R _ 3.0.                      ",
"                    2.X./ v x k k j k x k k k k k x v / B.6.                    ",
"                5.] ! z z x j k k k x k j k k k k k k x n /  .                  ",
"              u.[ l x x x k x k x b ! / / m x x k k k k b x l ~                 ",
"            F ~ v x k h x x x k x / 1 * = , P M k k k k g x x v ~               ",
"          s.~ x x k k x x x x x M 1 # O O + : / x k k k x k k x b [             ",
"        -.{ v k k k k k x x k b | ; o . . o % o.b k k k x x x x x b X.          ",
"        ' j x k k k k k k k k b | - o . . . % Z.b k k x x z x x x x b (         ",
"      8.! k k k k k k k k k k x M < # X X @ : ^ x k x x x x k k x x x W 6.      ",
"    *.' v x h x k k k k k k k k z U > & $ : A v x k x x x k k k x x x v V.      ",
"    g.Q b x k x x x k k k k k k x b / / W ! v x k k k k k k k k k b g x ! J     ",
"    ] v x x x k x x k k k k x x k k k k k k k k k k k k k k k k k x x x z )     ",
"  y.^ x k x x k x k k k k x x x x x j k x h k k k x x k k k k k x k x j x ~ F.  ",
"  k.Q j k k k x k k k k k x x x x k k k k k k x k x k k k k k k k k k x k ! d.  ",
"  b.m k k k k x k k k k k k x x x k k k k k k k k k k k k k k k k k x k x M c.  ",
"  l./ z x z b x b v b b x x x x z x x x k k k k k k k k k k k k k k x k k b z.  ",
"%.D.C.E W ^ | ~ W U ~ ~ Q Q ! / ! M b v b x k k k k k k k k k k k k k k k b M.  ",
"  e.  Z Z B C C Z d d p 9 e t y r u u i l x k k k k k k k k k k k k k k k v #.q ",
"                6 5 5 3 2 2 4 4 w r r i l x x x k k k k k k k k k k k k k v #.  ",
"  I.f.8.x.x.c.c.n.m.M.] } } { | W ! M v b x j k k k k k k k k k k k k k k v M.  ",
"  S.} Q ! ! / ! ! M M b v v v z z x x x x k k k k k k k k k k k k x k k k m l.  ",
"  l.m k x k x x x x k k k k k k x k k k k k k k k k k k k k k k x x x k k m S.  ",
"  a./ g k k k x x x k k k k x x k k k k k k k k k k k k k k k k k x k x k Q f.  ",
"  K.~ x j x k k k x k k k k x x x k k k k k k k k k k k k k k k k x x j x E G.  ",
"    _ b x k x k x x k k k k x x x x k k k k k k k k k k k k k k k k k x z '     ",
"    4.^ v k k k k k k k k k x x x x x k k k k k k k k k k k k k k k x v ! h.    ",
"    q.] v x g k k k k k k k x x x x x x k k k k k k k k k k k k k j b Q M.0.    ",
"      7.Q x k k k k k k k k k x x x x k k k k k k k k k k k k k k x x | i.      ",
"      I.) v b x x x k k k k k k k k k k k k k k k x x k k k k k k x c `         ",
"        -.| M b x k k k k k k k k k k k k k k k k x k k k k k k x v $.;.        ",
"          7.O.M x k k x x x k k k k k k k k k k k k k k k k k x z E 7.          ",
"            H } v x x j h k k x k x k k k k k k k k k x k x x v E G             ",
"              7.{ f j x x x x k x x x x k k k k k x k k x x j ^ 7.              ",
"                <.] ^ v v x j k k k x x k k k k k j x b M / I K                 ",
"                  J.7.C.! z x k x x k k k k k k k x v / z.,.                    ",
"                      :.L T Y Q v v b b b b b m Q E ] 4.e.                      ",
"                        Y.H.r.a.n.] O.{ { X.M.n.a.r.&.                          ",
"                              U.S V a 0 0 q V *.                                "
};
