/* XPM */
static char *_e098463b83242dafa82fc47dae5d690m4H7JLJnGswhTHnI[] = {
/* columns rows colors chars-per-pixel */
"40 40 128 2 ",
"   c None",
".  c #030100",
"X  c #0A0600",
"o  c #0D0900",
"O  c #110B00",
"+  c #171000",
"@  c #1D1400",
"#  c #240E00",
"$  c #2A0F00",
"%  c #211601",
"&  c #241901",
"*  c #291C01",
"=  c #371700",
"-  c #371C00",
";  c #2D2101",
":  c #352501",
">  c #3A2601",
",  c #3F2B01",
"<  c #4B1B00",
"1  c #452F01",
"2  c #482F01",
"3  c #512D01",
"4  c #463101",
"5  c #4B3501",
"6  c #513601",
"7  c #553B02",
"8  c #593D02",
"9  c #6D2900",
"0  c #613301",
"q  c #7E3701",
"w  c #713D01",
"e  c #5C4102",
"r  c #624302",
"t  c #664902",
"y  c #6A4B02",
"u  c #784E03",
"i  c #963700",
"p  c #9C3B00",
"a  c #835502",
"s  c #835B03",
"d  c #8C5D03",
"f  c #965101",
"g  c #9F5001",
"h  c #915F03",
"j  c #A34401",
"k  c #A64801",
"l  c #AE5101",
"z  c #B15601",
"x  c #B75D01",
"c  c #8D6403",
"v  c #926403",
"b  c #996403",
"n  c #956903",
"m  c #9B6E03",
"M  c #A36A03",
"N  c #B26602",
"B  c #A47504",
"V  c #AA7504",
"C  c #AA7904",
"Z  c #B37503",
"A  c #BA7A04",
"S  c #C46C02",
"D  c #CC7703",
"F  c #C27E04",
"G  c #CC7B03",
"H  c #D27E03",
"J  c #B68104",
"K  c #BA8404",
"L  c #BF8804",
"P  c #C78104",
"I  c #C18904",
"U  c #CA8D04",
"Y  c #D48A04",
"T  c #DB8E04",
"R  c #CE9204",
"E  c #D49605",
"W  c #DF9104",
"Q  c #D79905",
"!  c #DE9C05",
"~  c #E29404",
"^  c #E19D05",
"/  c #EA9C04",
"(  c #E4A105",
")  c #ECA305",
"_  c #EFA905",
"`  c #F2A505",
"'  c #F5AC05",
"]  c #F9AE05",
"[  c #F7B006",
"{  c #FFB505",
"}  c #FEB60A",
"|  c #FFB80E",
" . c #FEBA17",
".. c #FFBB17",
"X. c #FFBA14",
"o. c #FFB912",
"O. c #FFBB18",
"+. c #FFBC1A",
"@. c #FFBC1C",
"#. c #FFBC1D",
"$. c #FFBE22",
"%. c #FFBF24",
"&. c #FFBF25",
"*. c #FFC027",
"=. c #FFC028",
"-. c #FFC12B",
";. c #FFC12C",
":. c #FFC12E",
">. c #FFC12F",
",. c #FFC334",
"<. c #FFC437",
"1. c #FFC843",
"2. c #FFC844",
"3. c #FFC845",
"4. c #FFC947",
"5. c #FFCE59",
"6. c #FFCF59",
"7. c #FFCF5B",
"8. c #FFCF5C",
"9. c #FFD05E",
"0. c #FFD05F",
"q. c #FFD060",
"w. c #FFD162",
"e. c #FFD163",
"r. c #FFD266",
"t. c #FFD367",
"y. c #FFD368",
"u. c #FFD369",
/* pixels */
"                                  . . . . . .                                   ",
"                          . % 1 a V P Y Y F M u , % X                           ",
"                      * r b F Y W W W W W W W W T A v 7 &                       ",
"                  X 8 A Y T W W W W W W W W W ~ ~ W ~ T Z 5 X                   ",
"                @ a Y W W ~ W W W W W ~ / ) ` ' ' ] ` ` ) ~ a &                 ",
"              6 A T W W ~ T W W ^ _ ] { { { { { { { { { { { { E 8               ",
"            2 F W W W W T W ~ ` { { { { { { { { { { { { { o.o.{ ! 7             ",
"          4 A ~ W W W ~ ~ ) ] { { { { { { { { { { { { { { } $.%.} ! 7           ",
"        % A W T W W W ~ ` { { { { { { { { { { { { { { { { { | 1.%.{ R +         ",
"      X a T T ~ W W ~ ] { { { { { { { { { { { { { { { { { { { ..4.+.[ c X       ",
"      1 Y ~ ~ W W ~ { { { { { { { { { { { { { { { { { { { { { } ,.6.o.' e       ",
"    * Z T ~ T W ~ { { { { { { { { { { { { { { { { { { { { { { { ..6.1.{ R &     ",
"    0 T W W T ~ ' { { { { { { { { { { { { { { { { { { { { { { { } 4.9.O.' y     ",
"  O b W W W W / { { { { { { { { { { { { { { { { { { { { { { { { { @.t.4.[ C o   ",
"  % F ~ T ~ ~ { { { { { { { { { { { { { { { { { { { { { { { { { { } 8.w.| ! *   ",
"  4 T W ~ T ' { { { { { { { { { { { { { { { { { { { { { { { { { { { 1.t.<.[ 7   ",
"  a T ~ T / { { { { { { { { { { { { { ` ( { { { { { { { { { { { { { >.u.6.} m   ",
". Z ~ T ~ ` { { { { { { { { { { { { { ~ Y { { { { { { { { { { { { { -.u.9...R . ",
". U T ~ T { { { { { { { { { { { { { { H G { { { { { { { { { { { { { @.u.u.>.' . ",
". W ~ T ~ { { { { { { { { { { { { { { S Z { { { { { { { { { { { { { ..u.w.-.{ . ",
". W W W / { { { { { { { { { { { { { { z g { { { { { { { { { { { { { | w.>.| { . ",
". T W W ` { { { { { { { { { { { { { { j q { { { { { { { { { { { { { { *.{ { ' . ",
". A W W ' { { { { { { { { { { { { { ] p < ) { { { { { { { { { { { { { { { { L . ",
"  h W W ] { { { { { { { { { { { { { ~ i # K { { { { { { { { { { { { { { { { c   ",
"  5 T W ] { { { { { { { { { { { { { D i . s [ { { { { { { { { { { { { { { { 5   ",
"  & F W { { { { { { { { { { { { { { x 9 . 4 [ { { { { { { { { { { ) ^ [ { ! &   ",
"  . b W ] { { { { { { { { { { { { ] l <   : ( { { { { { { { { { ( , + E { J X   ",
"    r Y ' { { { { { { { { { { { { ` k $   @ E { { { { { { { { ) t o . J ' e     ",
"    & Z ) { { { { { { { { { { { { / p X   o L { { { { { { { [ r o . X ( U ;     ",
"      6 ^ { { { { { { { { { { { { W 9 X   . B [ { { { { { { R + . . 5 ) 5       ",
"      X d ' { { { { { { { { { { { G =       s ' { { { { { { { : . + L s o       ",
"        @ E { { { { { { { { { { { N #       t ' { { [ E I U E c & B R +         ",
"          e ^ { { { { { { { { { { f o       5 _ { E y @ o + * 1 n U 4           ",
"            5 ^ { { { { { { { { ' w         > Q { 5 X . . X : K E 5             ",
"              8 Q { { { { { { { ) 3         & I [ n & & 5 v ( E e               ",
"                & c ' { { { { { Q -         X V [ { { { { ' c @                 ",
"                  o 7 U ' { { { A @           v ' { [ ' R r X                   ",
"                      * e B Q [ a             8 ( E V t &                       ",
"                          X % 4 %             + , % .                           ",
"                                                                                "
};
