/* XPM */
static char *_923c53293c0471e8674ae9826f4d1afgVFRixaMrtOrhxGo[] = {
/* columns rows colors chars-per-pixel */
"40 40 238 2 ",
"   c None",
".  c black",
"X  c #010000",
"o  c #020000",
"O  c #020100",
"+  c #030100",
"@  c #030200",
"#  c #040200",
"$  c #090600",
"%  c #0A0700",
"&  c #0B0700",
"*  c #0D0900",
"=  c #0E0900",
"-  c #0E0A00",
";  c #170900",
":  c #150E00",
">  c #160E00",
",  c #160F00",
"<  c #170F00",
"1  c #171100",
"2  c #191200",
"3  c #191300",
"4  c #1C1301",
"5  c #1D1401",
"6  c #1E1401",
"7  c #1E1501",
"8  c #1F1501",
"9  c #240C00",
"0  c #250D00",
"q  c #221601",
"w  c #221701",
"e  c #231701",
"r  c #281000",
"t  c #2D1100",
"y  c #221901",
"u  c #231A01",
"i  c #241801",
"p  c #251B01",
"a  c #342501",
"s  c #3A2601",
"d  c #3C2901",
"f  c #3E2801",
"g  c #3E2A01",
"h  c #3F2B01",
"j  c #471A00",
"k  c #491A00",
"l  c #432300",
"z  c #402C01",
"x  c #402D01",
"c  c #452E01",
"v  c #433001",
"b  c #453101",
"n  c #473001",
"m  c #463201",
"M  c #483001",
"N  c #493401",
"B  c #4A3402",
"V  c #4B3502",
"C  c #4C3502",
"Z  c #4E3702",
"A  c #4F3702",
"S  c #4F3802",
"D  c #543902",
"F  c #5A3B02",
"G  c #583C02",
"H  c #5C3C02",
"J  c #642500",
"K  c #6C2700",
"L  c #623101",
"P  c #663401",
"I  c #7E3701",
"U  c #5E4302",
"Y  c #604502",
"T  c #634702",
"R  c #654802",
"E  c #754902",
"W  c #7C5103",
"Q  c #7F5A02",
"!  c #943600",
"~  c #953600",
"^  c #983800",
"/  c #993900",
"(  c #8E4A01",
")  c #805303",
"_  c #835602",
"`  c #845702",
"'  c #855702",
"]  c #805B03",
"[  c #845C02",
"{  c #855D02",
"}  c #845E03",
"|  c #8A5B03",
" . c #8C5C03",
".. c #8D5D03",
"X. c #9F5001",
"o. c #A24301",
"O. c #A34401",
"+. c #AB4D01",
"@. c #B15601",
"#. c #B55A01",
"$. c #8A6203",
"%. c #8C6303",
"&. c #8E6403",
"*. c #906503",
"=. c #916603",
"-. c #996403",
";. c #996503",
":. c #9A6503",
">. c #9E6703",
",. c #936803",
"<. c #976A03",
"1. c #976B03",
"2. c #AC6002",
"3. c #A66C03",
"4. c #AE7103",
"5. c #A97804",
"6. c #A97904",
"7. c #AA7904",
"8. c #AF7C04",
"9. c #B17303",
"0. c #B57603",
"q. c #B67703",
"w. c #BB7A03",
"e. c #BC7B03",
"r. c #C46C02",
"t. c #CB7603",
"y. c #C07D04",
"u. c #C27E04",
"i. c #C47F04",
"p. c #CA7B03",
"a. c #D27E03",
"s. c #B68204",
"d. c #BA8404",
"f. c #BB8504",
"g. c #BF8804",
"h. c #C68004",
"j. c #C78104",
"k. c #C88204",
"l. c #C28904",
"z. c #C78E04",
"x. c #D28A04",
"c. c #D38B04",
"v. c #D98D04",
"b. c #DA8D04",
"n. c #DA8E04",
"m. c #DB8E04",
"M. c #DC8F04",
"N. c #CB9004",
"B. c #CF9204",
"V. c #D29504",
"C. c #D39504",
"Z. c #D49604",
"A. c #D59704",
"S. c #DD9004",
"D. c #DE9004",
"F. c #DE9104",
"G. c #DF9104",
"H. c #D69804",
"J. c #D79904",
"K. c #D89904",
"L. c #D99A04",
"P. c #DB9B04",
"I. c #DD9D04",
"U. c #DD9D05",
"Y. c #DF9E05",
"T. c #E09204",
"R. c #E19304",
"E. c #E19404",
"W. c #E29404",
"Q. c #E29504",
"!. c #E09B04",
"~. c #E79A04",
"^. c #E39D04",
"/. c #E09F05",
"(. c #EA9C04",
"). c #E2A005",
"_. c #E3A105",
"`. c #E6A005",
"'. c #E7A105",
"]. c #E8A105",
"[. c #EBA305",
"{. c #E9A605",
"}. c #EAA605",
"|. c #ECA405",
" X c #ECA705",
".X c #ECA805",
"XX c #EDA805",
"oX c #EEA905",
"OX c #EFA905",
"+X c #F1A405",
"@X c #F1A505",
"#X c #F2A505",
"$X c #F5AB05",
"%X c #F4AD05",
"&X c #F5AD05",
"*X c #F7AD05",
"=X c #F5AE05",
"-X c #F8AD05",
";X c #F9AD05",
":X c #F9AE05",
">X c #F9AF05",
",X c #F8B005",
"<X c #FAB205",
"1X c #FBB205",
"2X c #FCB305",
"3X c #FDB305",
"4X c #FDB405",
"5X c #FEB405",
"6X c #FFB405",
"7X c #FEB505",
"8X c #FFB505",
"9X c #FEB506",
"0X c #FFB506",
"qX c #FEB60A",
"wX c #FFB60B",
"eX c #FFB80F",
"rX c #FFB810",
"tX c #FFBA14",
"yX c #FFBA15",
"uX c #FFBA16",
"iX c #FFBC1C",
"pX c #FFBF24",
"aX c #FFC12B",
"sX c #FFC12C",
"dX c #FFC333",
"fX c #FFC334",
"gX c #FFC335",
"hX c #FFC844",
"jX c #FFC948",
"kX c #FFCA48",
"lX c #FFCA49",
"zX c #FFCF5A",
"xX c #FFD05D",
"cX c #FFD05E",
"vX c #FFD161",
"bX c #FFD267",
"nX c #FFD368",
"mX c #FFD369",
/* pixels */
"                                @ @ @ @ @ @                                     ",
"                        @ w b  .0.v.G.G.x.0.| b 8 &                             ",
"                    8 H :.h.G.G.G.G.G.W.v.W.v.G.h.>.L i                         ",
"                @ M 0.v.R.G.G.G.G.G.G.v.W.v.W.G.W.G.v.w.c #                     ",
"              >  .].@X-X-X7X-X-X$X@X(.W.v.W.v.W.v.G.G.v.v._ >                   ",
"            S Y.2X7X7X7XQ @ @ @ @ @ Q 7X7X@X(.v.W.G.G.W.W.v.y.h                 ",
"          z ].7X7X7X7X7X@ ] 7X7Xg.z @ 7X7X7X7X$XW.G.v.v.W.v.R.i.h               ",
"        S }.7X7X7X7X7X7X7X7X7X7X7X7X7X7X7X7X7X7X7X(.W.G.G.W.v.W.k.M             ",
"      > /.7X7X7X7X7X7X7X7X7X7X7X7X7X7X7X7X7X7X7X7X7X-XR.G.G.G.G.G.i.>           ",
"    # %.7X7X7X7X7X7X7X7X7X7X7X7X7X7X7X7X7X7X7X7X7X7X7X7XW.G.G.G.G.G.` @         ",
"    D 2X7X7X7X7X7X7X7X7X7X7X7X7X7X7X7X7X7X7X7X7X7X7X7X7X7XW.G.G.G.G.v.Z         ",
"  8 Z.7X7X7X7X7X7X7X7X7X7X7X7X7X7X7X7X7X7X7X7X7X7X7X7X7X7X-XG.W.G.G.G.e.w       ",
"  U -X7X7X7X7X7X7X7X7X7X7X7X7X7X7X7X7X7X7X7X7X7X7X7X7X7X7X7X@XW.v.W.G.v.H       ",
"@ 5.7X7X7X7X7X7X7X7X7X7X7X7X7X7X7X7X7X7X7X7X7X7X7X7X7X7X7X7X7X].G.v.W.G.:.@     ",
"8 P.7X7X7X7X7X7X7X7X7X7X7X7X7X7X7X7X7X7X7X7X7X7X7X7X7X7X7X7X7X-XW.G.G.G.y.8     ",
"b 7X7X7X7X7X7X7X7X7X7X7X7X7X7X7X7X7X7X7X7X7X7X7X7X7X7X7X7X7X7X7X@XG.G.G.v.h     ",
"2 E 9.Z. X$X7X7X7X7X7X7X7X7X7X7X7X7X7X7X7X7X7X7X7X7X7X7X7X7X7X7X7X/.G.G.G.)     ",
"    - r l P ( 2.t.M.(.@X-X7X7X7X7X7X7X7X7X7X7X7X7X7X7X7X7X7X7X7X7X.XG.G.G.4.@   ",
"            # ; t J ^ O.+.#.t.W.-X7X7X7X7X7X7X7X7X7X7X7X7X7X7X7X7X-XG.G.G.h.@   ",
"                  @ @ 9 k K ~ ~ ^ o.@.r.a.W.@X7X7X7X7X7X7X7X7X7X7X7XW.G.G.x.@   ",
"                          @ @ 9 j I X.0.p.x._.7X7X7X7X7X7X7X7X7X7X7X(.G.G.x.@   ",
"                  @ - 4 a B [ f.@X7X7X7X7X7X7X7X7X7X7X7X7X7X7X7X7X7X].G.G.h.@   ",
"      & y s B R [ 8.z.P. X7X7X7X7X7X7X7X7X7X7X7X7X7X7X7X7X7X7X7X7X7X@XG.G.3.@   ",
"1 F =.s.B.`.1X2X2X7X7X7X7X7X7X7X7X7X7X7X7X7X7X7X7X7X7X7X7X7X7X7X7X7X$XG.G.W     ",
"v 1X2X7X7X7X7X7X7X7X7X7X7X7X7X7X7X7X7X7X7X7X7X7X7X7X7X7X7X7X7X7X7X7X$XW.v.h     ",
"8 H.7X7X7X7X7X7X7X7X7X7X7X7X7X7X7X7X7X7X7X7X7X7X7X7X7X7X7X7X7X7X7X7X-XM.y.w     ",
"@ 5.7X7X7X7X7X7X7X7X7X7X7X7X7X7X7X7X7X7X7X7X7X7X7X7X7X7X7X7X7X7X7X7X@XW.:.@     ",
"  Y 7X7X7X7X7X7X7X7X7X7X7X7X7X7X7X7X7X7X7X7X7X7X7X7X7X7X7X7X7X7X7X7X@Xv.D       ",
"  8 H.7X7X7X7X7X7X7X7X7X7X7X7X7X7X7X7X7X7X7X7X7X7X7X7X7X7X7X7X7X7X7X].w.8       ",
"    G 2X&X7X7X7X7X7X7X7X7X7X7X7X7X7X7X7X7X7X7X7X7X7X7X7X7X7X7X7XyX7X~.Z         ",
"    # =.-X1X7X7X7X2X7X7X7X7X7X7X7X7X7X7X7X7X7X7X7X7X7X7X7X7XwXpXeX7X` #         ",
"      > .X2X7X7X7X7X7X7X7X7X7X7X7X7X7X7X7X7X7X7X7X7X7X7X7XyXjXpX7X!.>           ",
"        [ 1X7X7X7X7X7X7X7X7X7X7X7X7X7X7X7X7X7X7X7X7X7XyXgXjXpX7X`.S             ",
"          1.&X&X}.7X7X7X7X2X7X7X7X7X7X7X7X7X7X7X7XiXjXcXcXyX7X].B               ",
"            z Y.Y.}.7X7X.X-X7X7X7X7XeXyXiXsXsXhXcXmXvXhXrX7XP.B                 ",
"              - $.1X1X}..X7X7X7X7XaXbXmXmXmXmXmXvXhXyX7X2X&.-                   ",
"                # b C.&X7X7X7X7X7X7XdXbXmXcXzXgXwX7X2XC.S @                     ",
"                    i U f._.7X7X7X7XeXaXsXyXwX7X_.5.Y 2                         ",
"                        @ y B ,.l.&X7X7X-XN.1.Z y &                             ",
"                                @ @ @ @ @ @                                     "
};
