/* XPM */
static char *d63f142fc113478ee424aedaddf36c98DoNf5tztKHY7SyDy[] = {
/* columns rows colors chars-per-pixel */
"40 40 252 2 ",
"   c None",
".  c black",
"X  c #010103",
"o  c #020203",
"O  c #010206",
"+  c #040606",
"@  c #050707",
"#  c #00020A",
"$  c #02050B",
"%  c #04080F",
"&  c #111412",
"*  c #1A211A",
"=  c #1E2724",
"-  c #313C2B",
";  c #394120",
":  c #3F4723",
">  c #3C462B",
",  c #465331",
"<  c #6D782D",
"1  c #637132",
"2  c #707D33",
"3  c #76812A",
"4  c #7D8829",
"5  c #758030",
"6  c #7E945A",
"7  c #838E2C",
"8  c #9CA72B",
"9  c #9FAA2B",
"0  c #ADB623",
"q  c #A6B63D",
"w  c #A7B73E",
"e  c #A6B63F",
"r  c #ADBB3A",
"t  c #ADBA3B",
"y  c #AFBD39",
"u  c #A8B83C",
"i  c #A9B93C",
"p  c #AAB83D",
"a  c #ACB93C",
"s  c #B0BE35",
"d  c #B1BE37",
"f  c #B3BF36",
"g  c #B0BD38",
"h  c #B1BE39",
"j  c #BBC11F",
"k  c #BDC623",
"l  c #BDC92F",
"z  c #BEC92F",
"x  c #BFCA2F",
"c  c #BFCC2C",
"v  c #B7C333",
"b  c #B7C334",
"n  c #B8C530",
"m  c #BBC730",
"M  c #BAC631",
"N  c #B9C532",
"B  c #B8C533",
"V  c #BAC632",
"C  c #D3DA1A",
"Z  c #D7DD19",
"A  c #D4DB1F",
"S  c #D4DC1F",
"D  c #D6DD1E",
"F  c #D6DC1F",
"G  c #D6DD1F",
"H  c #D7DE1E",
"J  c #DADF19",
"K  c #DAE11B",
"L  c #DBE11B",
"P  c #DBE21A",
"I  c #DEE319",
"U  c #DDE31A",
"Y  c #DCE21B",
"T  c #DEE518",
"R  c #DEE419",
"E  c #DFE419",
"W  c #D9E01C",
"Q  c #EAED0A",
"!  c #EBED0A",
"~  c #EBEF0F",
"^  c #ECEF0F",
"/  c #EFF10C",
"(  c #EFF20D",
")  c #EDF00E",
"_  c #EEF10E",
"`  c #EFF10E",
"'  c #F5F707",
"]  c #F6F706",
"[  c #F6F807",
"{  c #FAFB03",
"}  c #FBFC03",
"|  c #FDFE01",
" . c yellow",
".. c #FEFE01",
"X. c #FEFF01",
"o. c #FFFF01",
"O. c #FCFC02",
"+. c #FCFD02",
"@. c #FDFD02",
"#. c #FCFC03",
"$. c #FCFD03",
"%. c #FDFD03",
"&. c #FDFE02",
"*. c #FEFE02",
"=. c #FFFF02",
"-. c #F8F905",
";. c #F9FB05",
":. c #FAFB04",
">. c #FAFB05",
",. c #FBFB05",
"<. c #F8F906",
"1. c #F8F907",
"2. c #F9FA06",
"3. c #FBFC04",
"4. c #FBFC05",
"5. c #FBFD07",
"6. c #F1F40B",
"7. c #F2F40A",
"8. c #F3F50A",
"9. c #F2F40B",
"0. c #F2F50B",
"q. c #F3F60A",
"w. c #F4F509",
"e. c #F4F608",
"r. c #F5F608",
"t. c #F5F708",
"y. c #F4F609",
"u. c #F5F609",
"i. c #F5F709",
"p. c #F6F709",
"a. c #F4F50A",
"s. c #F4F60A",
"d. c #F4F70A",
"f. c #F6F70A",
"g. c #F0F30D",
"h. c #F1F30D",
"j. c #F0F30F",
"k. c #F2F40C",
"l. c #F7F808",
"z. c #F7F908",
"x. c #F6F809",
"c. c #F6F909",
"v. c #F8F908",
"b. c #E7EB11",
"n. c #E6EA13",
"m. c #E4E914",
"M. c #E8EC11",
"N. c #E9ED11",
"B. c #EAEE10",
"V. c #EBEF10",
"C. c #EAEE11",
"Z. c #E8EC12",
"A. c #E9EC12",
"S. c #E8ED12",
"D. c #E9ED12",
"F. c #ECEF10",
"G. c #EDEF10",
"H. c #C3CD29",
"J. c #C3CE2B",
"K. c #C5CF29",
"L. c #C0CB2D",
"P. c #C1CB2D",
"I. c #C1CD2C",
"U. c #C2CD2C",
"Y. c #C2CC2D",
"T. c #C3CF2C",
"R. c #C2CC2E",
"E. c #C4CE2C",
"W. c #CDD622",
"Q. c #CDD723",
"!. c #CED722",
"~. c #C9D326",
"^. c #CAD326",
"/. c #CBD525",
"(. c #CBD427",
"). c #CCD524",
"_. c #CDD625",
"`. c #CCD427",
"'. c #CFD821",
"]. c #CFD823",
"[. c #CFD825",
"{. c #C6D028",
"}. c #C7D128",
"|. c #C6D029",
" X c #C7D029",
".X c #C6D129",
"XX c #C8D228",
"oX c #D0D723",
"OX c #D0D724",
"+X c #D0D821",
"@X c #D2DA20",
"#X c #D2DA21",
"$X c #D3DA21",
"%X c #D3DB21",
"&X c #D0D822",
"*X c #D0D923",
"=X c #D1D923",
"-X c #D2D922",
";X c #D3DA22",
":X c #D5DC20",
">X c #D6DD20",
",X c #D0D824",
"<X c #869B53",
"1X c #859954",
"2X c #849955",
"3X c #859A54",
"4X c #859A55",
"5X c #869B54",
"6X c #879B54",
"7X c #869A55",
"8X c #889C52",
"9X c #889D52",
"0X c #889B54",
"qX c #8BA04F",
"wX c #8DA14C",
"eX c #8DA14E",
"rX c #8CA04F",
"tX c #9AAB45",
"yX c #9AAB47",
"uX c #9BAB47",
"iX c #9CAB46",
"pX c #9BAD45",
"aX c #9FAF44",
"sX c #9EAE45",
"dX c #9EAF45",
"fX c #93A64B",
"gX c #94A64B",
"hX c #90A24D",
"jX c #91A34F",
"kX c #92A54C",
"lX c #94A74D",
"zX c #94A74E",
"xX c #95A849",
"cX c #95A949",
"vX c #96A849",
"bX c #98A949",
"nX c #9AAA48",
"mX c #9AAB48",
"MX c #9EB043",
"NX c #A2B240",
"BX c #A3B340",
"VX c #A3B341",
"CX c #A0B142",
"ZX c #A1B242",
"AX c #A3B242",
"SX c #A2B342",
"DX c #A4B340",
"FX c #A4B343",
"GX c #A6B640",
"HX c #A7B640",
"JX c #A5B442",
"KX c #A1B144",
/* pixels */
"                                eXfX6   hXBXuXeX                                ",
"                          p XXR _ V.m   $X4.y.V.W P.DX                          ",
"                      m R q.{  . .q.P.5X$X . . . . .k.F d                       ",
"                  d I y.}  . . . .y.}.5X$X . . . . . . .y.F a                   ",
"                }._ }  . . . . . .[ (.5X$X . . . . . . . . .G.R.                ",
"            iX$Xy. . . . . . . . .1.].5X$X . . . . . . . . . .y.,XbX            ",
"          uX>X1. . . . . . . . . .1.A 5XW. . . . . . . . . . . .1.>XbX          ",
"          OX1. . . . . . . . . . .} K <XW. . . . . . . . . . . . .c.$X          ",
"        R.y. . . . . . . . . . . . .R 9X). . . . . . . . . . . . . .y.}.        ",
"      p V. . . . . . . . . . . . . .m.eX(. . . . . . . . . . . . . . ._ g       ",
"      >X . . . . . . . . . . . . . .V.hX^. . . . . . . . . . . . . . .} I       ",
"    y y. . . . . . . . . . . . . . ._ lXXX . . . . . . . . . . . . . . .y.m     ",
"    $X . . . . . . . . . . . . . . ._ lXR. . . . . . . . . . . . . . . .} R     ",
"  aXg. . . . . . . . . . . . . . . .q.cXc  . . . . . . . . . . . . . . . .q.q   ",
"  m  . . . . . . . . . . . . . . . .' MXR. . . . . . . . . . . . . . . . .1.}.  ",
"  F  . . . . .y.Z C g. . . . . . . .1.q R. . . . . . . . . . . . . . . . . .R   ",
"5XV. . . . .b.7 : ; < J  . . . . . .{ d K. . . . . . . . . . . . . . . . . ._ qX",
"gXq. . . .1.8 * + + & 5 v. . . . . . .m }. . . . . . . . . . . . . . . . . .y.uX",
"aX1. . . .c.1 O X X X > V. . . . . . .H.^. . . . . . . . . . . . . . . . . .1.BX",
"DX . . . .4.2 # X X X , g. . . . . . .W.]. . . . . . . . . . . . . . . . . . .JX",
"JX . . . . .k - % $ = 9  . . . . . . .y.y. . . . . . . . . . . . . . . . . . .JX",
"KX1. . . . .y.j 4 3 0 _  . . . . . . . . . . . . . . . . . . . . . . . . . .1.BX",
"bXy. . . . . .1.Q Q '  . . . . . . . . . . . . . . . . . . . . . . . . . . .y.cX",
"0X~  . . . . . . . . . . . . . . . . . . . . . . . . . . . . . . . . . . . .V.9X",
"  K  . . . . . . . . . . . . . . . . . . . . . . . . . . . . . . . . . . . .F   ",
"  H.1. . . . . . . . . . . . . . . . . . . . . . . . . . . . . . . . . . . .z   ",
"  BXq. . . . . . . . . . . . . . . . . . . . . . . . . . . . . . . . . . .g.BX  ",
"    I }  . . . . . . . . . . . . . . . . . . . . . . . . . . . . . . . . .>X    ",
"    b y. . . . . . . . . . . . . . . . . . . . . . . . . . . . . . . . .y.g     ",
"      K 1. . . . . . . . . . . . . . . . . . . . . . . . . . . . . . . .F       ",
"      t G. . . . . . . . . . . . . . . . . . . . . . . . . . . . . . .V.p       ",
"        E.y. . . . . . . . . . . . . . . . . . . . . . . . . . . . .y.z         ",
"          [.c. . . . . . . . . . . . . . . . . . . . . . . . . . .c.).          ",
"            $Xc. . . . . . . . . . . . . . . . . . . . . . . . .c.$X            ",
"              ).q. . . . . . . . . . . . . . . . . . . . . . .y.oX              ",
"                z V. . . . . . . . . . . . . . . . . . . .1.^ H.                ",
"                  q $Xy. . . . . . . . . . . . . . . .} y.K t                   ",
"                      t $X_  . . . . . . . . . . .1.q.K v                       ",
"                          aXm $Xb.q.1.4. .1.y.V.K R.BX                          ",
"                                5XkXpXBXBXMXcX<X                                "
};
