/* XPM */
static char *_86189a37e99456fac065d38f2a4e292sEsS3k0groYqRm7o[] = {
/* columns rows colors chars-per-pixel */
"40 40 232 2 ",
"   c None",
".  c black",
"X  c #000001",
"o  c #010104",
"O  c #010205",
"+  c #000009",
"@  c #03070E",
"#  c #080C0F",
"$  c #060B13",
"%  c #0C1114",
"&  c #131B1E",
"*  c #1A2223",
"=  c #2C362B",
"-  c #313B2A",
";  c #465332",
":  c #465333",
">  c #4B5833",
",  c #5B6734",
"<  c #5D6A33",
"1  c #657235",
"2  c #7E8A33",
"3  c #758C5F",
"4  c #7F9458",
"5  c #79915C",
"6  c #708764",
"7  c #728A60",
"8  c #8A9733",
"9  c #96A22E",
"0  c #A0AB2D",
"q  c #B3BD29",
"w  c #A6B63D",
"e  c #AAB93B",
"r  c #ADBB3A",
"t  c #AEBB3B",
"y  c #AEBC39",
"u  c #AAB83C",
"i  c #AAB83D",
"p  c #ACBA3C",
"a  c #B0BE35",
"s  c #B1BE38",
"d  c #BFC822",
"f  c #BFCB2D",
"g  c #BFCA2E",
"h  c #BFCB2E",
"j  c #BECA2F",
"k  c #BFCA2F",
"l  c #B6C333",
"z  c #B6C433",
"x  c #B3C037",
"c  c #B8C431",
"v  c #BAC531",
"b  c #B9C630",
"n  c #B9C631",
"m  c #BBC631",
"M  c #BAC731",
"N  c #B8C432",
"B  c #B8C433",
"V  c #BBC732",
"C  c #BBC633",
"Z  c #BCC730",
"A  c #B9C634",
"S  c #BAC830",
"D  c #BBC830",
"F  c #BCC830",
"G  c #BDC830",
"H  c #BCC831",
"J  c #BDC831",
"K  c #C6CD1F",
"L  c #D5DC1C",
"P  c #D7DE1E",
"I  c #D7DE1F",
"U  c #D8DF1D",
"Y  c #D9DF1D",
"T  c #D8DF1E",
"R  c #DBE21B",
"E  c #DDE319",
"W  c #DEE319",
"Q  c #DDE31A",
"!  c #DCE21B",
"~  c #DEE419",
"^  c #DEE41A",
"/  c #DBE01C",
"(  c #DAE11C",
")  c #DBE11C",
"_  c #DAE01D",
"`  c #DBE21C",
"'  c #DCE11C",
"]  c #EDF10D",
"[  c #EFF30C",
"{  c #EFF20D",
"}  c #ECF00F",
"|  c #EDF00F",
" . c #F6F807",
".. c #F7F907",
"X. c #FBFC03",
"o. c #FDFD01",
"O. c #FDFE01",
"+. c #FEFE00",
"@. c #FEFF00",
"#. c yellow",
"$. c #FEFE01",
"%. c #FEFF01",
"&. c #FFFF01",
"*. c #FCFC02",
"=. c #FCFD02",
"-. c #FDFD02",
";. c #FCFC03",
":. c #FCFD03",
">. c #FDFD03",
",. c #FEFE02",
"<. c #FFFF02",
"1. c #F9FA05",
"2. c #FBFB04",
"3. c #FAFA05",
"4. c #FAFB05",
"5. c #FBFB05",
"6. c #F8F907",
"7. c #F9FA07",
"8. c #FBFC04",
"9. c #FBFC05",
"0. c #FAFC06",
"q. c #FBFC06",
"w. c #FDFD04",
"e. c #FCFC05",
"r. c #FDFD05",
"t. c #FFFF04",
"y. c #FEFF05",
"u. c #FCFC06",
"i. c #FCFD06",
"p. c #F3F50A",
"a. c #F3F50B",
"s. c #F3F60B",
"d. c #F4F509",
"f. c #F5F708",
"g. c #F4F609",
"h. c #F5F709",
"j. c #F4F60A",
"k. c #F5F60A",
"l. c #F4F70A",
"z. c #F4F60B",
"x. c #F5F60B",
"c. c #F6F70A",
"v. c #F1F40C",
"b. c #F1F40D",
"n. c #F2F40C",
"m. c #F1F40E",
"M. c #F6F808",
"N. c #F6F809",
"B. c #F7F809",
"V. c #F6F909",
"C. c #F8F908",
"Z. c #F9FC09",
"A. c #E2E717",
"S. c #E4E913",
"D. c #E3E815",
"F. c #E5EA14",
"G. c #E6EA14",
"H. c #EAED11",
"J. c #EAEE10",
"K. c #EBEF10",
"L. c #C3CD29",
"P. c #C3CE2A",
"I. c #C4CE2B",
"U. c #C1CB2D",
"Y. c #C0CB2E",
"T. c #C1CC2C",
"R. c #C7D227",
"E. c #CAD120",
"W. c #CDD520",
"Q. c #CED722",
"!. c #CED725",
"~. c #CDD526",
"^. c #CCD527",
"/. c #CBD528",
"(. c #D1D923",
"). c #D2D923",
"_. c #D4DB22",
"`. c #D7DE20",
"'. c #D0D824",
"]. c #D1D924",
"[. c #D2D824",
"{. c #899D4E",
"}. c #809557",
"|. c #839757",
" X c #859B52",
".X c #869B53",
"XX c #839957",
"oX c #849954",
"OX c #859954",
"+X c #849856",
"@X c #859856",
"#X c #849956",
"$X c #8B9E52",
"%X c #8A9E53",
"&X c #809558",
"*X c #809658",
"=X c #819658",
"-X c #9CAE43",
";X c #9DAF43",
":X c #9EAF43",
">X c #99AA46",
",X c #99AB46",
"<X c #9BAC46",
"1X c #9CAD45",
"2X c #9DAD45",
"3X c #9DAE44",
"4X c #9FAF45",
"5X c #9EAD46",
"6X c #9FAF46",
"7X c #93A64B",
"8X c #94A74A",
"9X c #91A54C",
"0X c #93A54C",
"qX c #95A849",
"wX c #97A949",
"eX c #96A84A",
"rX c #99AB48",
"tX c #98AA4A",
"yX c #90A450",
"uX c #91A550",
"iX c #A1B142",
"pX c #A0B043",
"aX c #A1B242",
"sX c #A1B243",
"dX c #A2B242",
"fX c #A3B242",
"gX c #A2B342",
"hX c #A7B640",
"jX c #A7B740",
"kX c #A5B442",
"lX c #A5B443",
"zX c #A0B044",
/* pixels */
"                                }.9X:XgXgX3X9X*X                                ",
"                          wXM P H.l.4.&.&.4.l.H.Y J tX                          ",
"                      e P l.&.&.&.&.&.&.&.&.&.&.&.&.l.( i                       ",
"                  3XP 4.&.&.&.&.&.&.&.&.&.&.&.&.&.&.&.&.4.Y <X                  ",
"                M n.&.&.&.&.&.&.&.&.&.&.&.&.&.&.&.&.&.&.&.&.n.M                 ",
"              ~.q.&.&.&.&.&.&.&.&.&.&.&.&.&.&.&.&.&.&.&.&.&.&.q.~.              ",
"            _.w.&.&.&.&.&.&.&.&.&.&.&.&.&.&.&.&.&.&.&.&.&.&.&.&.w.'.            ",
"          ~.w.&.&.&.&.&.&.&.&.&.&.&.&.&.&.&.&.&.&.&.&.&.&.&.&.&.&.w./.          ",
"        J q.&.&.&.&.&.&.&.&.&.&.&.&.&.&.&.&.&.&.&.&.&.&.&.&.&.&.&.&.q.M         ",
"      :Xn.&.&.&.&.&.&.&.&.&.&.&.&.&.&.&.&.&.&.&.&.&.&.&.&.&.&.&.&.&.&.n.3X      ",
"      ( &.&.&.&.&.&.&.&.&.&.&.&.&.&.&.&.&.&.&.&.&.&.&.&.&.&.&.&.&.&.&.&.P       ",
"    t 4.&.&.&.&.&.&.&.&.&.&.&.&.&.&.&.&.&.&.&.&.&.&.&.&.&.&.&.&.&.&.&.&.4.i     ",
"    ! &.&.&.&.&.&.&.&.&.&.&.&.&.&.&.&.&.&.&.&.&.&.&.&.&.&.&.&.&.&.&.&.&.&.Y     ",
"  3XB.&.&.&.&.&.&.&.&.&.&.&.&.&.&.&.&.&.&.&.&.&.&.&.&.&.&.&.&.&.&.&.&.&.&.l.wX  ",
"  U.&.&.&.&.&.&.&.&.&.&.&.&.&.&.&.&.&.&.&.&.&.&.&.&.&.&.&.&.&.&.&.&.&.&.&.&.D   ",
"  ' &.&.&.&.&.&.&.&.&.&.&.&.&.&.&.&.&.&.&.&.&.&.&.&.&.&.&.&.&.&.&.&.&.&.&.&.Y   ",
"oX| &.&.&.&.&.&.&.&.&.&.&.&.&.&.&.&.&.&.&.&.&.&.&.&.&.&.&.&.&.&.&.&.&.&.&.&.H.*X",
"wXB.&.&.&.&.&.&.&.&.&.&.&.&.&.&.&.&.&.&.&.&.&.&.&.&.&.&.&.&.&.&.&.&.&.&.&.&.l.9X",
"gXq.&.&.&.&.&.&.&.&.&.&.&.&.&.&.&.&.&.&.&.&.&.&.&.&.&.&.w.Q.9 0 ! &.&.&.&.&.q.3X",
"jX&.&.&.&.&.&.&.&.&.&.&.&.&.&.&.&.&.&.l.l.&.&.&.&.&.&.&.q = # % ; P &.&.&.&.&.jX",
"jX&.&.&.&.&.&.&.&.&.&.&.&.&.&.&.&.&.&.Q.Q.&.&.&.&.&.&.n.> O . . @ 2 w.&.&.&.&.jX",
"gXq.&.&.&.&.&.&.&.&.&.&.&.&.&.&.&.&.&.R.P.&.&.&.&.&.&.F.- . . . O < Z.&.&.&.q.3X",
"wX .&.&.&.&.&.&.&.&.&.&.&.&.&.&.&.&.&.P.M &.&.&.&.&.&.l., + . . $ 8 w.&.&.&.B.7X",
" X| &.&.&.&.&.&.&.&.&.&.&.&.&.&.&.&.&.T.a &.&.&.&.&.&.&.E.; & * 1 D.&.&.&.&.| }.",
"  ( &.&.&.&.&.&.&.&.&.&.&.&.&.&.&.&.&.J w &.&.&.&.&.&.&.&.S.d K | &.&.&.&.&.(   ",
"  h &.&.&.&.&.&.&.&.&.&.&.&.&.&.&.&.&.M :X&.&.&.&.&.&.&.&.&.&.&.&.&.&.&.&.&.h   ",
"  3XB.&.&.&.&.&.&.&.&.&.&.&.&.&.&.&.&.z 8X&.&.&.&.&.&.&.&.&.&.&.&.&.&.&.&.l.tX  ",
"    ( &.&.&.&.&.&.&.&.&.&.&.&.&.&.&.&.A yX&.&.&.&.&.&.&.&.&.&.&.&.&.&.&.&.(     ",
"    y 4.&.&.&.&.&.&.&.&.&.&.&.&.&.&.&.J yX&.&.&.&.&.&.&.&.&.&.&.&.&.&.&.4.p     ",
"      ( &.&.&.&.&.&.&.&.&.&.&.&.&.&.&.Z $X4.&.&.&.&.&.&.&.&.&.&.&.&.&.&.(       ",
"      gXp.&.&.&.&.&.&.&.&.&.&.&.&.&.&.J oXB.&.&.&.&.&.&.&.&.&.&.&.&.&.p.zX      ",
"        h w.&.&.&.&.&.&.&.&.&.&.&.&.&.M 4 p.&.&.&.&.&.&.&.&.&.&.&.&.w.h         ",
"          '.&.&.&.&.&.&.&.&.&.&.&.&.&.M 5 | &.&.&.&.&.&.&.&.&.&.&.w.'.          ",
"          oXP w.&.&.&.&.&.&.&.&.&.&.&.c 3 H.&.&.&.&.&.&.&.&.&.&.&.`.oX          ",
"            XX).w.&.&.&.&.&.&.&.&.&.&.M 7 F.&.&.&.&.&.&.&.&.&.w.).oX            ",
"                U.l.&.&.&.&.&.&.&.&.X.M 6 A.&.&.&.&.&.&.&.&.p.h                 ",
"                  gX! 4.&.&.&.&.&.&.X.M   ! &.&.&.&.&.&.4.R gX                  ",
"                      s ^ C.&.&.&.&.X.l   Y &.&.&.&.B.( t                       ",
"                          gXI.^ | 4. .x   ).4.| ! T.:X                          ",
"                                {.,XgX*X  $X,X X                                "
};
