/* XPM */
static char *_33d427431bb40d8fc1414b36f6c9a8b9azEKXkTEKWOcgvE[] = {
/* columns rows colors chars-per-pixel */
"40 40 166 2 ",
"   c None",
".  c #7C642F",
"X  c #766335",
"o  c #7A6333",
"O  c #83662E",
"+  c #856A2D",
"@  c #8B6C2D",
"#  c #936F2F",
"$  c #93742F",
"%  c #977A2F",
"&  c #9A7C2F",
"*  c #816331",
"=  c #866A31",
"-  c #8A6E33",
";  c #877133",
":  c #8C7233",
">  c #837039",
",  c #8C743B",
"<  c #937531",
"1  c #997730",
"2  c #967A32",
"3  c #9B7C33",
"4  c #91763B",
"5  c #917A3C",
"6  c #997F38",
"7  c #A07E33",
"8  c #957F42",
"9  c #9F802F",
"0  c #9D8233",
"q  c #97853B",
"w  c #9D843C",
"e  c #A6862E",
"r  c #AB8B2F",
"t  c #B99B2F",
"y  c #A38433",
"u  c #A88731",
"i  c #A68933",
"p  c #AB8C32",
"a  c #A1843B",
"s  c #A18839",
"d  c #AF9532",
"f  c #AE9132",
"g  c #B19332",
"h  c #B09233",
"j  c #B19333",
"k  c #B19531",
"l  c #B39631",
"z  c #B09532",
"x  c #B29433",
"c  c #B29732",
"v  c #B39633",
"b  c #B49731",
"n  c #B49632",
"m  c #B59733",
"M  c #B09134",
"N  c #B09234",
"B  c #B59734",
"V  c #B39433",
"C  c #B79831",
"Z  c #B79B31",
"A  c #B59832",
"S  c #B59833",
"D  c #B59932",
"F  c #B69932",
"G  c #B59A33",
"H  c #B79B33",
"J  c #B69934",
"K  c #B69932",
"L  c #BA9A31",
"P  c #B89B32",
"I  c #B89B33",
"U  c #B99D31",
"Y  c #BB9F31",
"T  c #B99D33",
"R  c #BA9C32",
"E  c #BA9D32",
"W  c #BA9E32",
"Q  c #BB9E32",
"!  c #BB9F33",
"~  c #BD9E31",
"^  c #BD9F33",
"/  c #B89B34",
"(  c #B89B35",
")  c #BB9D34",
"_  c #BA9E34",
"`  c #BB9C32",
"'  c #BEA02F",
"]  c #BEA331",
"[  c #BDA132",
"{  c #BDA133",
"}  c #BFA132",
"|  c #BEA133",
" . c #BEA233",
".. c #BFA432",
"X. c #BEA034",
"o. c #BEA132",
"O. c #CAAE2F",
"+. c #CDB42F",
"@. c #CDBA2F",
"#. c #D0B62F",
"$. c #D1BB2E",
"%. c #C1A330",
"&. c #C1A332",
"*. c #C1A333",
"=. c #C0A232",
"-. c #C0A531",
";. c #C1A531",
":. c #C2A530",
">. c #C2A431",
",. c #C2A531",
"<. c #C2A631",
"1. c #C0A532",
"2. c #C2A432",
"3. c #C2A532",
"4. c #C2A533",
"5. c #C3A533",
"6. c #C3A632",
"7. c #C3A732",
"8. c #C4A631",
"9. c #C4A731",
"0. c #C5A733",
"q. c #C0A334",
"w. c #C2A532",
"e. c #C5A830",
"r. c #C5A831",
"t. c #C6A931",
"y. c #C7AB30",
"u. c #C5A832",
"i. c #C5A833",
"p. c #C6A932",
"a. c #C7AA32",
"s. c #C7AA33",
"d. c #C5AA32",
"f. c #C8AB33",
"g. c #C8AC31",
"h. c #CAAE31",
"j. c #C9AC32",
"k. c #C9AD32",
"l. c #CBAF32",
"z. c #C9AE32",
"x. c #C3A938",
"c. c #C8AD39",
"v. c #CCB231",
"b. c #CFBC30",
"n. c #C9B63F",
"m. c #D0B531",
"M. c #D1B931",
"N. c #D0BB39",
"B. c #D3C12E",
"V. c #DDCD2F",
"C. c #D5C233",
"Z. c #D6C639",
"A. c #D9CB39",
"S. c #C9B340",
"D. c #DCCA45",
"F. c #DBC44D",
"G. c #DBCD4B",
"H. c #D8C350",
"J. c #DBC957",
"K. c #D7C45A",
"L. c #ECDD65",
"P. c #E5DA6A",
"I. c #F0DD6B",
"U. c #E8DD72",
"Y. c #F1ED9A",
"T. c #F7F1AA",
/* pixels */
"                                                                                ",
"                                    o o o o                                     ",
"                            - - + + + + + + + . o o                             ",
"                      > ; : < < < < < < < < < : @ + O o X                       ",
"                    : $ % 1 3 3 0 0 0 0 y 3 3 1 2 $ @ + O .                     ",
"                , < 1 7 y y y u u u u u p u y y y 3 % $ @ + * o                 ",
"              5 2 0 y y i p d N N g g g d p p p i i y 0 2 < - O .               ",
"            5 & 0 i p p d d x m F F F F m m x d d p p i y 3 < @ + o             ",
"          5 6 y i p d x x F W W W W W W W W F F x x d p u y 3 < @ O o           ",
"          6 y i p g m F I ^ { { { %.%.%.{ { W W I F m g d p i 0 2 - O           ",
"        6 y i d x m F W ^ %.%.-.-.-.-.-.-.-.{ { W W I F x d p i 0 $ @ .         ",
"      8 y i d x F I W X.q.-.-.9.d.d.d.d.d.-.-.-.%.{ { _ F x g p y 3 $ + o       ",
"      0 e p x J I W { q.-.9.d.d.d.h.h.h.f.d.d.d.-.-.%.{ W ( B g p y 1 @ o       ",
"      y r d B ( W { ..-.9.d.d.h.h.h.h.h.h.h.h.d.d.9.-.%.{ _ ( x g u 0 < +       ",
"    0 y p m ( W { ..-.d.d.d.h.h.l.v.v.v.v.v.O.O.d.d.d.9.4.X.W J N p y 1 @ *     ",
"    3 u N F _ { ..-.e.d.f.h.h.h.v.v.v.v.v.v.+.h.h.h.d.d.-.{ ^ I x p u 7 # *     ",
"    y p V I W { x.x.d.g.h.v.v.v.v.v.v.v.m.m.@.+.v.h.h.d.9.%.%.W F g u y $ O     ",
"    y p x I { ..K.K.d.h.h.v.v.v.v.#.#.M.M.M.#.@.v.v.h.f.d.-.%.{ I g p y 1 +     ",
"  6 y p x F { -.S.n.d.h.v.v.v.v.v.m.M.$.Z.C.$.@.v.v.h.f.d.-.-.{ I m p y 1 +     ",
"  6 y p x F { d.v.g.g.h.v.v.v.v.m.v.b.G.Y.P.B.$.@.v.v.h.d.9.-.{ I V p y 1 @ o   ",
"  6 y p x F { @.V.v.g.+.v.v.v.v.m.m.M.G.T.U.B.@.@.v.v.h.d.9.-.{ I x p y 1 @ o   ",
"  6 y p x F { N.A.+.h.v.v.v.v.v.m.#.$.C.D.Z.@.@.b.v.v.h.d.9.-.{ I x p y 2 +     ",
"    y p x F [ J.L.O.g.h.v.v.v.v.m.m.v.M.b.$.@.@.@.v.v.h.d.9.%.{ I x p y 1 +     ",
"    0 u g J W H.I.c.d.h.h.v.v.v.m.m.m.v.@.@.@.@.+.v.h.h.d.0.%.^ I x p y 1 +     ",
"    0 u g F W c.F.g.d.g.h.v.v.v.v.@.@.v.v.v.v.+.v.v.h.g.d.-.%.W F g u y < =     ",
"    0 u d x I ' i.d.d.d.g.h.v.v.v.+.@.@.v.v.v.v.v.h.g.d.-.%.{ W F d u 7 < =     ",
"      y p N J W { 4.9.d.d.g.h.v.v.v.v.v.v.v.v.v.h.h.d.e.-.{ ^ I x p y 3 :       ",
"      w i f V F ^ %.-.-.d.d.h.h.h.v.v.v.v.v.h.h.h.d.e.-.%.^ I m N p y 2 ;       ",
"      q y p g m I ^ { -.-.d.d.d.h.h.h.h.h.h.h.d.i.i.-.{ { W F x p y 9 $ >       ",
"        0 i p x F ( ^ q.%.-.9.d.d.f.f.d.d.f.d.e.7.4.%.{ W F x d u y & :         ",
"          y p d m ( ^ ) { %.-.-.-.9.d.d.d.9.-.-...X.^ ^ F x d u y 7 <           ",
"          w i p g B J ( ) ^ { %.%.-.-.4.4.-.-.%.{ ^ I J m d p i y 2 ,           ",
"            a u p d V B I I ^ ^ { q.%.%.%.{ { ^ ^ I m V f p y y & 4             ",
"              w i p d x m m I I ) ^ ^ ^ ^ W W t I m g f p y y 3 4               ",
"                w y p d g V m m J F F F F F F m x d p u y 0 2 5                 ",
"                    a i p p M g N x x x x g g d p u y y 0 2                     ",
"                      w a i u p p p p p p p u u y y 0 6                         ",
"                            y y i y y y y y y 0 6 6                             ",
"                                    w 0 0 0                                     ",
"                                                                                "
};
