/* XPM */
static char *result[] = {
/* columns rows colors chars-per-pixel */
"40 40 80 1 ",
"  c #171757",
". c #181957",
"X c #171659",
"o c #18175A",
"O c #19185C",
"+ c #1B1C63",
"@ c #1E1D6E",
"# c #1F1E71",
"$ c #192067",
"% c #1A2069",
"& c #1D2672",
"* c #1F2F77",
"= c #1F2E7C",
"- c #1F3079",
"; c #212376",
": c #212378",
"> c #212F7D",
", c #21307D",
"< c #1F2E80",
"1 c #212E84",
"2 c #223282",
"3 c #24358E",
"4 c #243F8D",
"5 c #253693",
"6 c #263D96",
"7 c #263798",
"8 c #253D9B",
"9 c #283C99",
"0 c #24418E",
"q c #254294",
"w c #254399",
"e c #274A9A",
"r c #284B9D",
"t c #2744A3",
"y c #2845A5",
"u c #264BA1",
"i c #2C4DA6",
"p c #2C4EA9",
"a c #2A52A7",
"s c #2B52AC",
"d c #2E56B4",
"f c #2D5ABA",
"g c #3156B6",
"h c #3156B9",
"j c #305CBA",
"k c #2E63BE",
"l c #3163BE",
"z c #2E62C5",
"x c #3167C2",
"c c #3169C2",
"v c #3365CA",
"b c #336CCD",
"n c #3570CF",
"m c #366ED0",
"M c #3374D5",
"N c #3A76D7",
"B c #3379D5",
"V c #3B78D7",
"C c #3376D9",
"Z c #367BDD",
"A c #397BDC",
"S c #367FE0",
"D c #3583DC",
"F c #3680E1",
"G c #3E84E5",
"H c #358AE2",
"J c #3E88E6",
"K c #3D8BE8",
"L c #3E92EC",
"P c #3D95F0",
"I c #3F9DF4",
"U c #4087E7",
"Y c #4089E7",
"T c #4089E8",
"R c #4294EE",
"E c #409CEF",
"W c #4197F0",
"Q c #429BF2",
"! c #43A1F4",
"~ c #48A4F5",
/* pixels */
"........oooOOOOOOOOOOO+OO++OO+O+++++++++",
",,>>>>*>---------2,,-2=<1=>,1,1<<2<<<<<$",
"$rqqqq0qwqqwwwwweewwqqwwqwwwwwqwwwwwu==%",
"$4aaaaaaaaassaaaaassssspssssssspsssd<<<+",
"$0s6aaiiuiiuiiipiipipippippppppppp7p<2<%",
"+0skddddfffhhffffffffhfffffffffffffs<2<%",
"+0skjBnnbnbbbbmbbbmmmmmmmmmmmmmmBzfp<2=%",
"+0skxvBBVVVVVNVVNNNVNVVANCNAVNNZvzfp322%",
"+0dlcbZBFZDFFFDSFFSSFFFFFFSFFSSSmzfs22<%",
"%0alzbZJGYKJYYUYYTTYTTTTYYUUTUTSmzfa12<%",
"$0dlcbZJLPRLRPRLWRWWWWRLWWPPRQKSbzfs121%",
"+0allbZJKP~!!!!!!QQ!!!!!Q!!~QTGSmzfp131+",
"+0slcnZJLWQ~EEEEQQEEPPEEEI!IQRUSmzjp121%",
"$0slcbZJRWQH85555555555557M!QWGSmzjs121%",
"+0slcbZJKW!D&OOOOOOOO+O+O#bQQRKSmzjp131%",
"+0dlcbZJRR!D:o XXXX XXXXo@bQQRGSmzfp322%",
"$0skzbDJRW~D;.    X XXOXX#bIIRKZnvfp122+",
"$0sklbZJLR!D;X XXX XXXOOX#b!QWKZbzgs121%",
"$0szcbZJLRQD;X  XXXXXXXXO#vIQWKZmvhs321%",
"+0skcbZJLE!D;..XXXX XXXXX#vIQTKZMzfp111+",
"+0slcbZJKW!D;.  XXX XXXXX@b!QRYSmzfp121%",
"+0slzbZJLW!D;X XXX XXXXXo@b!QWUSmzjs121%",
"$0dlxbAJLW!D;. XXX  XXXXO@bQQRKSMzfp121%",
"$0slxbAJLR~D;X .X XXXXXXX@bQQTKSmzhp321%",
"$0slcbAJLW!D;  XXXXXXXXXO@bIIRKZmzjp12<%",
"+0slcnZJLW!D;X XXXXXXXXXX@b!QRKZmzjs12<%",
"+0sllbZJLR!D;+OOX++++++++#b!WRKZMzfp321%",
"+0sllvDJLE!HytttttttttyyyyBIQRKZmzfs12<@",
"$0skcbAJKIW!!Q!!Q!!Q!!!!!!!IQRKZmzfp<2<%",
"$0skcbZJLR~!!~!QQQ!~~Q!!!~Q~WRKZmzfs322%",
"$0dkkbZJLPLILPPPPPWPPPPPPPPPPRKZmzfp<2<@",
"+0sklvAKFJJJJJUKGUUUUYJYUYYUUGRZmzfd<22%",
"+qsllbDNAAAAZAASAAAASAASASSASSNSmzhp<21%",
"+0slccMMMMMBBMMMMBNCMMBCCNMMMMNZvzhs122%",
"$0sldnbnbbbnnbmbnnnbmmnbmmmmnnMMBffs<1=%",
"$0scggsggggdhghhhhhjhhhhhhhhhhghhhxs<2<%",
"$0s4q90988969998999798888888t888885d12=%",
"$00eeeeeeeeeeeeeeeeerrurrirrtruruure>,<%",
"+e000000qqqqqqqqqqwwqqwqqqwqqqqq9wwww;>%",
",,**>>>>-**=*--=>>>>,>=->,>1,11>1,1,11*+"
};
